<mxfile host="app.diagrams.net" modified="2020-08-22T13:20:24.571Z" agent="5.0 (Windows NT 10.0; Win64; x64) AppleWebKit/537.36 (KHTML, like Gecko) Chrome/84.0.4147.135 Safari/537.36" etag="_PI6KtUB7kcMSaUEc7x4" version="13.6.4" type="github">
  <diagram id="dlH1IEFXx9mLL8BZ3KSZ" name="Page-1">
    <mxGraphModel dx="1422" dy="762" grid="1" gridSize="10" guides="1" tooltips="1" connect="1" arrows="1" fold="1" page="1" pageScale="1" pageWidth="827" pageHeight="1169" math="0" shadow="0">
      <root>
        <mxCell id="0" />
        <mxCell id="1" parent="0" />
        <mxCell id="HamWP4uttsAGSkK_IS_m-3" value="" style="edgeStyle=orthogonalEdgeStyle;rounded=0;orthogonalLoop=1;jettySize=auto;html=1;" edge="1" parent="1" source="HamWP4uttsAGSkK_IS_m-1" target="HamWP4uttsAGSkK_IS_m-2">
          <mxGeometry relative="1" as="geometry" />
        </mxCell>
        <mxCell id="HamWP4uttsAGSkK_IS_m-25" style="edgeStyle=orthogonalEdgeStyle;rounded=0;orthogonalLoop=1;jettySize=auto;html=1;startSize=6;endArrow=block;endFill=1;endSize=6;strokeColor=#000000;strokeWidth=6;" edge="1" parent="1" source="HamWP4uttsAGSkK_IS_m-1" target="HamWP4uttsAGSkK_IS_m-20">
          <mxGeometry relative="1" as="geometry">
            <Array as="points">
              <mxPoint x="280" y="210" />
              <mxPoint x="280" y="74" />
            </Array>
          </mxGeometry>
        </mxCell>
        <mxCell id="HamWP4uttsAGSkK_IS_m-1" value="ROI選擇十字刻線" style="rounded=1;whiteSpace=wrap;html=1;" vertex="1" parent="1">
          <mxGeometry x="100" y="180" width="120" height="60" as="geometry" />
        </mxCell>
        <mxCell id="HamWP4uttsAGSkK_IS_m-5" value="" style="edgeStyle=orthogonalEdgeStyle;rounded=0;orthogonalLoop=1;jettySize=auto;html=1;" edge="1" parent="1" source="HamWP4uttsAGSkK_IS_m-2" target="HamWP4uttsAGSkK_IS_m-4">
          <mxGeometry relative="1" as="geometry" />
        </mxCell>
        <mxCell id="HamWP4uttsAGSkK_IS_m-26" style="edgeStyle=orthogonalEdgeStyle;rounded=0;orthogonalLoop=1;jettySize=auto;html=1;startSize=6;endArrow=block;endFill=1;endSize=6;strokeColor=#000000;strokeWidth=6;" edge="1" parent="1" source="HamWP4uttsAGSkK_IS_m-2" target="HamWP4uttsAGSkK_IS_m-21">
          <mxGeometry relative="1" as="geometry" />
        </mxCell>
        <mxCell id="HamWP4uttsAGSkK_IS_m-2" value="萃取垂直邊界" style="whiteSpace=wrap;html=1;rounded=1;" vertex="1" parent="1">
          <mxGeometry x="100" y="280" width="120" height="60" as="geometry" />
        </mxCell>
        <mxCell id="HamWP4uttsAGSkK_IS_m-7" value="" style="edgeStyle=orthogonalEdgeStyle;rounded=0;orthogonalLoop=1;jettySize=auto;html=1;" edge="1" parent="1" source="HamWP4uttsAGSkK_IS_m-4" target="HamWP4uttsAGSkK_IS_m-6">
          <mxGeometry relative="1" as="geometry" />
        </mxCell>
        <mxCell id="HamWP4uttsAGSkK_IS_m-27" style="edgeStyle=orthogonalEdgeStyle;rounded=0;orthogonalLoop=1;jettySize=auto;html=1;startSize=6;endArrow=block;endFill=1;endSize=6;strokeColor=#000000;strokeWidth=6;" edge="1" parent="1" source="HamWP4uttsAGSkK_IS_m-4" target="HamWP4uttsAGSkK_IS_m-22">
          <mxGeometry relative="1" as="geometry" />
        </mxCell>
        <mxCell id="HamWP4uttsAGSkK_IS_m-4" value="萃取水平邊界" style="whiteSpace=wrap;html=1;rounded=1;" vertex="1" parent="1">
          <mxGeometry x="100" y="380" width="120" height="60" as="geometry" />
        </mxCell>
        <mxCell id="HamWP4uttsAGSkK_IS_m-9" value="" style="edgeStyle=orthogonalEdgeStyle;rounded=0;orthogonalLoop=1;jettySize=auto;html=1;" edge="1" parent="1" source="HamWP4uttsAGSkK_IS_m-6" target="HamWP4uttsAGSkK_IS_m-8">
          <mxGeometry relative="1" as="geometry" />
        </mxCell>
        <mxCell id="HamWP4uttsAGSkK_IS_m-28" style="edgeStyle=orthogonalEdgeStyle;rounded=0;orthogonalLoop=1;jettySize=auto;html=1;startSize=6;endArrow=block;endFill=1;endSize=6;strokeColor=#000000;strokeWidth=6;" edge="1" parent="1" source="HamWP4uttsAGSkK_IS_m-6" target="HamWP4uttsAGSkK_IS_m-23">
          <mxGeometry relative="1" as="geometry" />
        </mxCell>
        <mxCell id="HamWP4uttsAGSkK_IS_m-6" value="萃取十字刻線中心點" style="whiteSpace=wrap;html=1;rounded=1;" vertex="1" parent="1">
          <mxGeometry x="100" y="480" width="120" height="60" as="geometry" />
        </mxCell>
        <mxCell id="HamWP4uttsAGSkK_IS_m-13" value="" style="edgeStyle=orthogonalEdgeStyle;rounded=0;orthogonalLoop=1;jettySize=auto;html=1;endArrow=classic;endFill=1;strokeColor=#000000;" edge="1" parent="1" source="HamWP4uttsAGSkK_IS_m-8" target="HamWP4uttsAGSkK_IS_m-12">
          <mxGeometry relative="1" as="geometry" />
        </mxCell>
        <mxCell id="HamWP4uttsAGSkK_IS_m-29" style="edgeStyle=orthogonalEdgeStyle;rounded=0;orthogonalLoop=1;jettySize=auto;html=1;startSize=6;endArrow=block;endFill=1;endSize=6;strokeColor=#000000;strokeWidth=6;" edge="1" parent="1" source="HamWP4uttsAGSkK_IS_m-8" target="HamWP4uttsAGSkK_IS_m-24">
          <mxGeometry relative="1" as="geometry">
            <Array as="points">
              <mxPoint x="280" y="610" />
              <mxPoint x="280" y="739" />
            </Array>
          </mxGeometry>
        </mxCell>
        <mxCell id="HamWP4uttsAGSkK_IS_m-8" value="計算FOV中心點與十字刻線中心點距離" style="whiteSpace=wrap;html=1;rounded=1;" vertex="1" parent="1">
          <mxGeometry x="100" y="580" width="120" height="60" as="geometry" />
        </mxCell>
        <mxCell id="HamWP4uttsAGSkK_IS_m-10" value="" style="ellipse;html=1;shape=startState;fillColor=#000000;strokeColor=#ff0000;" vertex="1" parent="1">
          <mxGeometry x="145" y="110" width="30" height="30" as="geometry" />
        </mxCell>
        <mxCell id="HamWP4uttsAGSkK_IS_m-11" value="" style="edgeStyle=orthogonalEdgeStyle;html=1;verticalAlign=bottom;endArrow=classic;entryX=0.5;entryY=0;entryDx=0;entryDy=0;endFill=1;" edge="1" source="HamWP4uttsAGSkK_IS_m-10" parent="1" target="HamWP4uttsAGSkK_IS_m-1">
          <mxGeometry relative="1" as="geometry">
            <mxPoint x="255" y="180" as="targetPoint" />
          </mxGeometry>
        </mxCell>
        <mxCell id="HamWP4uttsAGSkK_IS_m-12" value="" style="ellipse;html=1;shape=endState;fillColor=#000000;strokeColor=#ff0000;" vertex="1" parent="1">
          <mxGeometry x="145" y="680" width="30" height="30" as="geometry" />
        </mxCell>
        <mxCell id="HamWP4uttsAGSkK_IS_m-20" value="" style="shape=image;verticalLabelPosition=bottom;labelBackgroundColor=#ffffff;verticalAlign=top;aspect=fixed;imageAspect=0;image=data:image/png,iVBORw0KGgoAAAANSUhEUgAAAXoAAADjCAYAAACLvt+vAAAY8klEQVR4Ae2dz48c1b3F2zM2EjDYwD78Wr1NdhDksS15QRTFjo0HDFhggSJ7BAv8Q0+yLZT8CU8oGxZkQaQss0Z6Sl7iSGwS8WyvkKJESNhjTDDGAs/YoCdhf59uh9spt7t6qn26q0+fexatquqqrq5z7jmfqqnp6el0Op3wwx6oZmDDhg2RHknf/Px8LC0txfLyciwuLsbc3Fwv+3kbVR8QXfv374/V1dVYWVmJCxcuxNraWpw8ebLnHbJvv7Y19rT2Rg6GT6qtZ8Cgx/tt0OMeEpzQJES0DhCCgbPmBidOgx7vt0GPe0jACwkRhl4D6BGErfVxMujxfhv0uIcE3ZMQ0TpACAbOmhuc3Ax6vN8GPe4hAS8kRBh6DaBHELbWx8mgx/tt0OMeEnRPQkTrACEYOGtucHIz6PF+G/S4hwS8kBBh6DWAHkHYWh8ngx7vt0GPe0jQPQkRrQOEYOCsucHJzaDH+23Q4x4S8EJChKHXAHoEYWt9nAx6vN8GPe4hQfckRLQOEIKBs+YGJzeDHu+3QY97SMALCRGGXgPoEYSt9XEy6PF+G/S4hwTdkxDROkAIBs6aG5zcDHq83wY97iEBLyREGHoNoEcQttbHyaDH+23Q4x4SdE9CROsAIRg4a25wcjPo8X4b9LiHBLyQEGHoNYAeQdhaHyeDHu+3QY97SNA9CRGtA4Rg4Ky5wcnNoMf7bdDjHhLwQkKEodcAegRha32cDHq83wY97iFB9yREtA4QgoGz5gYnN4Me77dBj3tIwAsJEYZeA+gRhK31cTLo8X4b9LiHBN2TENE6QAgGzpobnNwMerzfBj3uIQEvJEQYeg2gRxC21sfJoMf7bdDjHhJ0T0JE6wAhGDhrbnByM+jxfhv0uIcEvJAQYeg1gB5B2FofJ4Me77dBj3tI0D0JEa0DhGDgrLnByc2gx/tt0OMeEvBCQoSh1wB6BGFrfZwMerzfBj3uIUH3JES0DhCCgbPmBic3gx7vt0GPe0jACwkRhl4D6BGErfVxMujxfhv0uIcE3ZMQ0TpACAbOmhuc3Ax6vN8GPe4hAS8kRBh6DaBHELbWx8mgx/tt0OMeEnRPQkTrACEYOGtucHIz6PF+G/S4hwS8kBBh6DWAHkHYWh8ngx7vt0GPe0jQPQkRrQOEYOCsucHJzaDH+23Q4x4S8EJChKHXAHoEYWt9nAx6vN8GPe4hQfckRLQOEIKBs+YGJzeDHu+3QY97SMALCRGGXgPoEYSt9XEy6PF+G/S4hwTdkxDROkAIBs6aG5zcDHq83wY97iEBLyREGHoNoEcQttbHyaDH+23Q4x4SdE9CROsAIRg4a25wcjPo8X4b9LiHBLyQEGHoNYAeQdhaHyeDHu+3QY97SNA9CRGtA4Rg4Ky5wcnNoMf7bdDjHhLwQkKEodcAegRha32cDHq83wY97iFB9yREtA4QgoGz5gYnN4Me7/fPDhyIazdvxoWrV+P8l1/G6q1bcfyXv3T+GuSPiBN4EIjEOHyzFb6Jj5dBX9/vxzud+GGDx3/++Mdx/S9/iX/+4Q/x2e9/Hzf++td4++c/b/TaB5zHiWe8IX/rg9BwByxCfBwu1R0ZMOjr+32604mY8GOPM3lHJqfE1fogTOmAWIzxcQiU1KCv77dBX++NIPuKEmt4C8B7lBIa9PX9/uOEr+bTTws/Kyxvo2Sz5W3rg9DygRjCLsXYM2DQ1/fboK/3RpB9RYkdO0gEAyHlkUFf32+Dvt4bwV4XJVYKYoJhHPv4GPT1/Tbo670R7FZRYscOEsFASHlk0Nf326Cv90aw10WJlYKYYBjHPj4GfX2/Dfp6bwS7VZTYsYNEMBBSHhn09f026Ou9Eex1UWKlICYYxrGPj0Ff32+Dvt4bwW4VJXbsIBEMhJRHBn19vw36em8Ee12UWCmICYZx7ONj0Nf326Cv90awW0WJHTtIBAMh5ZFBX99vg77eG8FeFyVWCmKCYRz7+Bj09f026Ou9EexWUWLHDhLBQEh5ZNDX99ugr/dGsNdFiZWCmGAYxzo+GfJpmrzauHFjLC0txfLyciwuLsbc3Fzv/fI2JXlq0BfFvqLE9opdUqFL1ToM9Fu3bo0q3Kvzpfhl0BfFvqLEGvQFfUOmQT+82wb9cH/ETvhFiTXoCwJ9KmqGfZqfn5+Pffv29W7dpOVcZl/RT+a/Tfn76Gn4SnMgvdLl8nnqsUEzUAV9ukefQH/48OHYvn1795593r9Bb9DnLIhODRPRgfWJc8BPLxn027ZtK96f/2nhP0z9dMAYuG9TYO7CwkL4YQ8UM3D//fd3s52m9913X2zZsqX7qZtDhw7Fzp07Y/Pmzd3n0/q8raIP/ZruX1iIexcW4s/z8xP/5+Av3Htv9736j8HL7TKnc/bs2fDDHqhn4Ny5c/Hhhx/GG2+8Ec8++2y8/fbb8dFHH3Wzf+bMmbI6cO5c/O/f/harP/rRxEH/8a9+FR/+4x9l+UvI1M7nn38eftgD9Qx88cUXcenSpThy5Ejs3r073n333fj666/LzP7ly/HZ2lr8344dEwf9V7/9bXz27bdl+kzE1s7Kykr4YQ/UM/Dpp5/GJ5980gX9nj174p133okEf3XdA/VdvBgXrl6Nb7dtmzjor/zmN3H+2rUyfSZia2dtbS38sAfqGfjmm2/iq6++iqNHj8auXbvivffei5s3b8b169fLy//167EaEd/t3Dlx0H/7u9/FtYjyPCbjauf48ePhhz1QzMCxY8e62U7TPH/w4ME4cOBA9179iRMnus9X1yv60K/p2PHjceTEifj7D34wcdD/eu/eOHLqlBkzZc52/FGnKXzUyR85m9pHG/fu3Ruvv/56PPnkk1M7BpbO/XcLH6/c6ayz5MygYymej2P8Waz+wVT+y9j8B1ObNm3qldB/MOU/mBLv3/jLJW5YDw7WyZ+dOtDv2LEjDPrJwD0qPyn4KxBoOkJzIAaof8wdewaqoPdXINzedX+p2e1+iF+4FSV27CARD8fM+2XQ1/fboK/3RrDXRYmdeXAJBnBiY5Ihn6bJt3yPPv3jkfRdN/72St+6KahPBn1Bgz0xqLJ6mGHfD3r/h6lO+Iq+KPYVJbY40LECuK3jSqDP/zIw36P3vxL8V+cN+qLYV5RYg76wX/j2X9H7f8b+u+8G/b+9aOvCY4rvU5RYg96g7/2HqXyln8qX7+NPsYitZ9OgL4p9RYltvUwlgYNRq6/o6/tt0Nd7w5hl8JiKEmvQ+4reV/TfZ8CgL4p9RYk16A16g96gL5EDBj34I1GJoZkZzb51U99vX9HXeyPIhKLEzgygBIM2Fe8N+vp+G/T13gj2ryixU4GNYGhmxkeDvr7fBn29N4KdLUrszABKMGhT8d6gr++3QV/vjWD/ihI7FdgIhmZmfDTo6/tt0Nd7I9jZosTODKAEgzYV7w36+n4b9PXeCPavKLFTgY1gaGbGR4O+vt+nK/8gpPrPQsY5v6ewj/MSd70+CMQHPTOgsYfTzZdBX++/r+jrvRHsbVFifYIo7ArLoK/v9yOdTvxHg8exn/wkrp85E/88fTo++9Of4sbZs/Ffhw41eu1CYXkjPkHUB4H4oA1sF6hRBgx6vN97DhyIazdvxoUvv4zzV67E6q1bcfwXv2jkvxmC+z8mD2kOxMExvMeeAYMe7/f+/ftjdXU1VlZW4sKFC7G2thYnT54c+1iNCWg+rsEcwYPgAbKHrBkw6PFsGvS4hwT9kBDhs/jgs3jxvhj0eL8NetxDg96AKh7GkyyBQY9DyqDHPZxkxhvuW0KEYekT5sAMGPR4vw163MOGMB6Y4TG9VkLEJA3yvmf4JGLQ4/026HEPxwRrhEUSIhAD/NoZBvl6BTLo8X4b9LiH6+W0hfUSIgxrYVgjJTDo8X4b9LiHSIbH9FoJEQa9QT8wAwY93m+DHvdwTLAemPGG+5YQgRjg1wqfJAx6vN8GPe5hQxhPkkUSIiZpkPc9wyeCftDv27fP/xx8xPE06CUYKSHCMB6xvARXGK2MmUGP99ugxz0k6JuEiFagQTBY1jniCc2gx/tt0OMeErBDQoQBOCIACYI38TGrQj7pnZ+fD9+6ad735F/yzaBv7hltr3IZPN0Q9kDLg7m5ud6Y9oN+69at0b8+gy2XVTUP/frSctaa11WnCfTXrl0b+O2V+XXrTfP+8nZ5OU3zc55Orn8dmzs5c+0tj7cJKJs2bepd0SfQp/FRBk06kVVPZtX5ptlM/owD9E3fL213N8c5yv5L3Nag38ADoxIDOEnNVYgPAv0woFRfO8ljbHPfSVNVV16um6ZjS+vyrZv0XfTj/j76/B75GKp+pOeqy56/e1Z1ssGeCtyH8336LpiGZTnfo3/66afX3XbYfkpa9/zzz8d3330XV65c6T5u3boVb731lv2bpb49/vjj4Yc9UM/AI488Ek888US8+OKLcfjw4XjmmWe6uX/sscciP9Q9GFXfo48+Gunx0ksvxenTp+P999/vPj744IM4cuRIJE9H3ae3nw5rOin0ftgDlQwsLy93/yAqTfs1HTp0KA4ePBgvv/xyvPbaa5GW+7cpZTlpX09/Wp98fOWVV2L37t2xZ8+e2Lt3b+zatasL/0Eej+Lfeu8/yr687XCGdZ577rnwwx6UkoEE+QT7dJW6tLRUVPbTLZhRH+lWV/Lr6NGj8eabb3Yfaf7VV1/t/mJ71P3VbV9K/qals/PAAw/E5s2be4+0nJ+rzqdthi0PWjfKfkfZtvpe1fl8jKPsa1LbVo+rOu9jHE/e+n2sepzn03RhYaGX54ceeqgLunQluX379tiyZcvA3Od9p9fn+TTN8/n5vNy/br31/dtXl6vz/fvpXx62bVqXts+vSVoffPDBSB40fTz88MNxzz33dH8Cunz5cnz88cfdx9WrV7v36NOnmJrua9h26bjS8aVHPuY8rWqszmddebu8nHW3uW31varz+ZjyMeZ1aZrX5fm8PIlt0z79y9hZ+oWKj/WufgGYP9mxcePG7lV8Av2gz9GX9AvWUbS+8MILcePGjbh06VJcvHixOz/JX8bmT9eMcozedp0Pk+QSZKOqJlfn0/phy4PW5X32vxbdtvr66nx+n0m97yj7rR5Xdd7H+K+P7GUvq95U57NP6blB21bX59cNm6bt8+foE+i3bdt2x+fo8/tU953n87r8HtXl6nyT9f3bV5er82lfw5bXW5ePJU/z9mman8vvkZfzNtXl/PHK8+fPd/9oanV1NU6cONE7tvya/mneR36P/L55mtfXva76fP8+8nLeR17O+86vzevz89Xl/By6bfX11fl8TP3v2eR9837Gse33x7HOmcBXkesGujoonp9OnvrLlJe/D3l3DKtfgZBAnz9HXx2zQa+rrp+leVRL9i7/wdSgz9HnbdD3miVfZ/JYqwPk+bv/gwR7Nx3vhpWuOiZpu3TrJn+OfnFxsfvdN2mb6j76X1NdnsX5qrbqfL/u6rr++XTr5m6+AqF/P8OWq8fTPz+LvrMds/8y1n8Ze9uP8WwBbXo8GSJ5+7Sc59M0LedbN+ljgcNA3//a6n5maT57kqf52LO+/Px600mBPh9PmtYdQ3Ubz9/9xZR/GetbU7UlqyvfLD2f4ZCOuf+KPt26yVqGwSZvU+o037pZWVnpfQXCqVOnet6V6suM6Z7OPdUZM8mhntETYhX01Xv06YreoG/W/fzL2CroT5486U7MVieaDbbBbJ9mMQMGPZ5bgx73kKA7EiJ8dTFbVxetjZdBj/fboMc9NOgNqNagRxC21rX2gz597UH+Zaxv3TQDmEHfzCfyfkmIaB0g5INqP76/gDDo8X4b9LiHBLyQEGGw+SejgRkw6PF+G/S4hwa9ATUQUATBkDgugx6HlEGPe0jQZwkRElAiCIOcjwY93m+DHveQoNsSIuQARRAMCU8NerzfBj3uIUGfJURIQIkgDHI+GvR4vw163EOCbkuIkAMUQTAkPDXo8X4b9LiHBH2WECEBJYIwyPlo0OP9NuhxDwm6LSFCDlAEwZDw1KDH+23Q4x4S9FlChASUCMIg56NBj/fboMc9JOi2hAg5QBEEQ8JTgx7vt0GPe0jQZwkRElAiCIOcjwY93m+DHveQoNsSIuQARRAMCU8NerzfBj3uIUGfJURIQIkgDHI+GvR4vw163EOCbkuIkAMUQTAkPDXo8X4b9LiHBH2WECEBJYIwyPlo0OP9NuhxDwm6LSFCDlAEwZDw1KDH+23Q4x4S9FlChASUCMIg56NBj/fboMc9JOi2hAg5QBEEQ8JTgx7vt0GPe0jQZwkRElAiCIOcjwY93m+DHveQoNsSIuQARRAMCU8NerzfBj3uIUGfJURIQIkgDHI+GvR4vw163EOCbkuIkAMUQTAkPDXo8X4b9LiHBH2WECEBJYIwyPlo0OP9NuhxDwm6LSFCDlAEwZDw1KDH+23Q4x4S9FlChASUCMIg56NBj/fboMc9JOi2hAg5QBEEQ8JTgx7vt0GPe0jQZwkRElAiCIOcjwY93m+DHveQoNsSIuQARRAMCU8NerzfBj3uIUGfJURIQIkgDHI+GvR4vw163EOCbkuIkAMUQTAkPDXo8X4b9LiHBH2WECEBJYIwyPlo0OP9NuhxDwm6LSFCDlAEwZDw1KDH+23Q4x4S9FlChASUCMIg56NBj/fboMc9JOi2hAg5QBEEQ8JTgx7vt0GPe0jQZwkRElAiCIOcjwY93m+DHveQoNsSIuQARRAMCU8NerzfBj3uIUGfJURIQIkgDHI+GvR4vw163EOCbkuIkAMUQTAkPDXo8X4b9LiHBH2WECEBJYIwyPlo0OP9NuhxDwm6LSFCDlAEwZDw1KDH+23Q4x4S9FlChASUCMIg56NBj/fboMc9JOi2hAg5QBEEQ8JTgx7vt0GPe0jQZwkRElAiCIOcjwY93m+DHveQoNsSIuQARRAMCU8NerzfBj3uIUGfJURIQIkgDHI+GvR4vw163EOCbkuIkAMUQTAkPDXo8X4b9LiHBH2WECEBJYIwyPlo0OP9NuhxDwm6LSFCDlAEwZDw1KDH+23Q4x4S9FlChASUCMIg56NBj/fboMc9JOi2hAg5QBEEQ8JTgx7vt0GPe0jQZwkRElAiCIOcjwY93m+DHveQoNsSIuQARRAMCU8NerzfBj3uIUGfJURIQIkgDHI+GvR4vw163EOCbkuIkAMUQTAkPDXo8X4b9LiHBH2WECEBJYIwyPlo0OP9NuhxDwm6LSFCDlAEwZDw1KDH+23Q4x4S9FlChASUCMIg56NBj/fboMc9JOi2hAg5QBEEQ8JTgx7vt0GPe0jQZwkRElAiCIOcjwY93m+DHveQoNsSIuQARRAMCU8NerzfBj3uIUGfJURIQIkgDHI+GvR4vw163EOCbkuIkAMUQTAkPDXo8X4b9LiHBH2WECEBJYIwyPlo0OP9NuhxDwm6LSFCDlAEwZDw1KDH+23Q4x4S9FlChASUCMIg56NBj/fboMc9JOi2hAg5QBEEQ8JTgx7vt0GPe0jQZwkRElAiCIOcjwY93m+DHveQoNsSIuQARRAMCU8NerzfBj3uIUGfJURIQIkgDHI+GvR4vw163EOCbkuIkAMUQTAkPDXo8X4b9LiHBH2WECEBJYIwyPlo0OP9NuhxDwm6LSFCDlAEwZDw1KDH+23Q4x4S9FlChASUCMIg56NBj/fboMc9JOi2hAg5QBEEQ8JTgx7vt0GPe0jQZwkRElAiCIOcjwY93m+DHveQoNsSIuQARRAMCU8NerzfBj3uIUGfJURIQIkgDHI+GvR4vw163EOCbkuIkAMUQTAkPDXo8X4b9LiHBH2WECEBJYIwyPlo0OP9NuhxDwm6LSFCDlAEwZDw1KDH+23Q4x4S9FlChASUCMIg56NBj/fboMc9JOi2hAg5QBEEQ8JTgx7vt0GPe0jQZwkRElAiCIOcjwY93m+DHveQoNsSIuQARRAMCU8NerzfBj3uIUGfJURIQIkgDHI+GvR4vw163EOCbkuIkAMUQTAkPDXo8X4b9LiHBH2WECEBJYIwyPlo0OP9NuhxDwm6LSFCDlAEwZDw1KDH+23Q4x4S9FlChASUCMIg56NBj/fboMc9JOi2hAg5QBEEQ8JTgx7vt0GPe0jQZwkRElAiCIOcjwY93m+DHveQoNsSIuQARRAMCU8NerzfBj3uIUGfJURIQIkgDHI+GvR4vw163EOCbkuIkAMUQTAkPDXo8X4b9LiHBH2WECEBJYIwSPqYYJ+8nZ+fj6WlpVheXo7FxcWYm5vr6c3beAzu5IFBf6cnM5gTCRG9ws7gAPjYO+1kcOPGjbFv3z6DfkS/Dfp28jlhdkmIMCxHLO+EQ0U5HlXQb926NapX8dX5Er0Zptmgl2CkhAhKsAwrj9e1k7sE8AzxdOsmX9Eb9M39N+ibe0XcawkRBr2v6O/IQIZ8Bv2mTZt69+gT6PM9+rwdcUnv0NbmsRr0EoyUEDHVIrRZOr9X87z2Azzdukm/jD18+HA89dRTvcz0b2ePb/fYoL/dj1nMx/8Diqr2altz7lMAAAAASUVORK5CYII=;" vertex="1" parent="1">
          <mxGeometry x="344.16" y="20" width="244.78" height="147" as="geometry" />
        </mxCell>
        <mxCell id="HamWP4uttsAGSkK_IS_m-21" value="" style="shape=image;verticalLabelPosition=bottom;labelBackgroundColor=#ffffff;verticalAlign=top;aspect=fixed;imageAspect=0;image=data:image/png,iVBORw0KGgoAAAANSUhEUgAAAXoAAADjCAYAAACLvt+vAAAgAElEQVR4Ae2dW6xdxZnnt30MtsGBg2MiXiJyMZDQL5HSEZhAiJIZZV4IYIK5HGzAkKgfph8SJ1KilkZ5amnUwbkIgpLJc3c/8BTN04QO7UbpUUbKpSOknkl8ORdfAd/OOUAGaVSj/7L/298p19p7nXP2rm+vVf+Hpa9Wrar66vJ9v/3t2mut3ev1eqGEY8OGDWHQsXHjxoBj8+bNYdeuXWH//v1h79694amnngozMzPVsW/fvrBz584wPT0dtm7dWpVnm6k5HHQtVV55ZdhiyesMn8D4Iaempqr0gQMHwtLSUlhYWAhzc3PVMT8/308jb3Z2dsX54uJiOHjwYBHsGpG9lOFchG6dFOjLsIMROY0As8YAUaB38zM3xVmdpQ7wzBfoy7ADgd53nQV6t/l3UyzQrzEqEqzKsNkurnMK9H/1rW+F5eXl5ls3s7Nh8b33wt/95CdZGdLy9SjDaRi510lF9GXYQcudtfVgs6DfMDUVPtzrhf/+138d3rx4sTHoZ0+cCMtHjoT/9sADYUrBUlObKMPB6wDPfIG+DDsQ6H3XmaDv4UfZqanw814vhG3bwsK//muYf+ut/g+ug36MPba4GN55/vnwXq8X7tu4sSnoSi/nu/C5HI9Ar5MCfRl2kMvepCdtTzHoDwH0vV448dprYf7tt5uBfmkpLD/2WFXvPwr0TT/A0gvSNUOtAzzzBfoy7KBrdt228cSgfxWg37gxnDh0aHWgn5mpQP9FgV6gt05AoNdJgV6gt/ai9HjsQaAfz7w2sFc3xU0/iUZSrg7wzBfoy7CDBg4xEnuTnrQ9CfTpeclgL26KszoUgV4nBfoy7CCDQ2W167aNR6B38zM3xVkdog7wzBfoy7CDtoGxa/0V6N38zE2xQK97gLPaQNeg2cbxCPRuvHVTnNXJGbnXSUX0ZdhBG+HYpT4L9G5+5qZYoFdEn9UGugTMto5FoHfjrZvirE5eF8kzXxF9GXbQVkB2pd8CvZufuSkW6BXRZ7WBrsCyzeMQ6N1466Y4q5Mzcq+TiujLsIM2Q7ILfRfo3fzMTbFAr4g+qw10AZRtH4NA78ZbN8VZnbwukme+Ivoy7KDtoGx7/wV6Nz9zUyzQK6LPagNth2QX+i/Qu/HWTXFWJ2fkXicV0ZdhB12AZZvHINC7+ZmbYoFeEX1WG2gzILvSd4HejbduirM6eV0kz3xF9GXYQVeA2dZxCPRufuamWKBXRJ/VBtoKxy71W6B3462b4qxOzsi9TiqiL8MOugTNNo5FoHfzMzfFAr0i+qw20EYwdq3PAr0bb90UZ3Xyukie+Yroy7CDroGzbeMR6N38zE2xQK+IPqsNtA2KXeyvQO/GWzfFWZ2ckXudVERfhh10EZ5tGpNA7+ZnbooFekX0WW2gTUDsal8FejfeuinO6uR1kTzzFdGXYQddBWhbxiXQu/mZm2KBXhF9VhtoCwy73E+B3o23boqzOjkj9zqpiL4MO+gyRNswNoHezc/cFAv0iuiz2kAbQNj1Pgr0brx1U5zVyesieeYroi/DDroO0kkfn0Dv5mduigV6RfRZbWDSIVhC/wR6N966Kc7q5Izc66Qi+jLsoASYTvIYBXo3P3NTLNAros9qA5MMwFL6JtC78dZNcVYnr4vk4WC4xoj+2muvDbt27Qr79+8Pe/fuDU899VSYmZmpjn379oWdO3eG6enpsHXr1qoO20056qBrqfLKK8MWS15n+EQ1fsipqfBqrxfCxo3hxKFDYf7tt8Pc3Fx1zM/P99PIm52d7Z8fW1oKyzMzIfR64YsbN2blSIvXrgznInRjiYVDnkBfhh202FE7ATSB3s3P3BRnNdwY8DwX6MtYfwF+MtZZoHdbBzfFWUHPiJ2ApxToy1h/gX4y1lmgd1sHN8VZQU+wx1KgL2P9BfrJWGeB3m0d3BRPHOinpqbC5s2b9WOs7gbKapslfQgJ9G68dVOc1ZniSJ7nNqIX6MuwhZLAOmljFejdfMxN8dhBT5gPk9i/B+QF+u7awqQBr9T+CPRuPuameKygHwZ3e12g76YNlArTSR63QO/ma26KBXrthY/VBiYZeKX2TaB3462b4rE7uY3ah6UZ1Tf5MfbGG2/Uk7H6kBq7/Xbxw0Cgd+Otm+KxO8owuNvrAn137aCLwGzrmAR6Nz9zUzzRoH/22WdXvOsG77x5+umnq3fd3HDDDYroFdGP3X7bCvNB/Rbo3XjrpnjsjsKIHYbHdJ2MI3qBvrt2MQhEujbedRfoxzu/A+zXTfHYQW8HXQd4lMG1pqC/7bbbgvboy7AZaz9Kj2bNBfrRzOMa7NFN8cSBHrDnj7GI6LFdE7+mGKC/6aabwnXXXVfdd88PkNTED7qWKq+8Mmyx5HUW6N1s3E2xQK997qw2UDJgJ2XsAr0bb90UZ3VyRtexhAMgL7V1k4rob7/99rB9+3ZF9PqQymq/kwLq9fZDoHfjrZvirI4SA57nqwE9/nHqE5/4RNixY0e4/vrrq60b1k85gNWRuq68MmxP63xlnQX6K3OR2S7cFE8k6Lds2VK9vTK1R0/Q33zzzQK9Ivqs9psZCmMbm0Dvxls3xWMzppRTMLqOJcoij1s3An0Z9pCyEeWNf+0F+vHPcY0duynuPOj5IVIz8VnHrz6UYeeTvs6jBv1/0J+DN+NIHOF29RwRuz3icTKix+2V9957b3juuefCE088UR0zMzNh3759ARJ79B/60IeqrZtNmzZd9SAW2onb1vkGzcmGsufAfgDBR3obNoTe1FR4tdcLYePGcOLQoXD09Olw7Nix6pibmwvHjx8Ps7Oz1fn8/HyVrs6XlsLyzEwIvV6oQF/43DbhS69JoS6UaQJ5gBugv+eee8L+/fvDk08+WcEde/MAPV6B8MlPfjKk9ui7MEcaQ9kwHuf6E/TXXHPNpf9+2LQp9K65JvwCoN+wIRw/dCgcP3cuAOiAPIB+5MiRCvanT5+u8o8ePXrpg0CgX3Xg1OMCSF76ag/Y33XXXeGZZ56pIM9bLAF95OGBqenp6eoDQXOm7RDZwDpsYMOGFRH9kdOnw4kTJyq4Lyws9CN4QB/n/AA4fOFCWHryySqi/4JuCmi2dYOnPLt4AMY4ODa8toAH8nidknnYlrn//vurCJ4RPbZssI2DqP5Tn/pUuPXWW8Mtt9xStY36bBeS7VFSP9unxHV7Telu2qHW9dK64tkTHPARzMmN09Nh244d4dDUVH/r5n8vLFSgB+wJfET1f/rTnyrQE/7/5+zZsPjEExXoH7zhhrCtowwbpe30fve73wUdvwu///3vwx/+8IfwxhtvhBdeeCE89NBD4bHHHqu2bwB4bN985StfCa+88kr4zW9+U5VHnd/+9rcrDs2l7Ek2MNgG4GO//7d/C//r3/89LP7lX1bAPvkv/xKOnTnT36PHXj326HEA8Ni2YUQP0F98/PGq3h9/8pPwm8OHxbAhHO/x07N0SYM6d+5c+NnPfhYefvjhCvSPP/54fwsH6ddee60yPMzXyZMnq8POHfMgbb7Sl6I0zUOZ80BonzlzJmDP/dTp0+Hk0lL4v/feWwH71Ouvh2Nvvln5DMFut2sIef4Yy62bs6+8EhaWl+Vrl78F1flXDz9+6LjyAxCM8Mc//nEV0WPLBpE89umxjfPoo4+GV199tR9Z2HmDIfKI8+250rK3Em0AgMaBsVd+Mj8fjr39dnj37rtXRPT0IUCeZVEPHxS4VrWzvNzfoz/1938fZi9cEMOGcLzHiZWcq4zl1KlT4cUXXwwPPvhgtSdPyAP6e/bsCb/4xS8qY8NXSztnNGTION+eK33lA1FzUc5cANyANbdg5vFj69mz4b1du/oR/cLZs/0fYGkb8Cf4Gv0K8J81oD/9D/8Qjp0/v8LnWFfyin31eN9q6ZKGRNBjjx5784jksWUD4EMC9DDW/q1el43Qzh/a4mHzlb50j7Tmobx5IOjx4yoADNDPnTsX/nzPPX3Qn7gMbPgObATlIOlvOEc7FvRn/vEfw5GzZ1fs7cu+rrYvbd1EX3kA+pdffjk88sgj/XvoCXn8OIutGxqS/Qpuo4c4354rra2bEm0g9o9juE/+zTf7oMcDU/gxFnODsoA7oI40wM85q85NRA/Qa+tmuE8J9A1Aj316RPMC/XCDokNKaq6sDfAbLvNi0B//538OR06erAU9oI+6Av3a7KrHBShdwoBwIKJ/6aWXqrtuAHjeQw8Zb91wzirjM9s1bCvOZ3nJK1tbmosy5gKQBqwRqVf+gb32s2f7ET1ur5w/e7YfweNbM+rAPvgNGvWqvCiiP3ruXH+rVPaUtift0V9+twYMBIakPfqr9/foaJKam7XaACCPH2MH7dEfP39+BbDhj9CnPfr1210PC6Dj0tdCRAu4vZJ33SCi58NSeDIWD0xhj56Rhp035PGI8+250rK3Em2AvsGACnOQur0SYEcZfCigThX9X37BGdK4dmxpacXtlXMXL4phQziurZvLWy6IGhBtAPQ//elPw+7du6utGgCer0Lg1g2jGhohjM8edfm2jNIr50zz0e35YFQOwPf9I7q98uiZMxXgAXnYA8pCwt+YruxEWzcreNPEd3oXLlwIOi7NweLiYnj33XerJ2NxHz1+fAXoEdnjQET/+uuvh7feequas4sXL1by/PnzgYfmUvYkG7jaBugf8Jl33nknXFxcDGfffz+8f999Kx6YIrTwwQDg46ii/8u3W+L6n86f778CYennPw/nQhDDhnC8h8i1iwdeYYCDY+M58+w581CWcAfgceBHWD40hcieB8qhPO63t0dduyhLPSzDvkl20wa1rlevK3wFty4/vHt3eGDPnvCHHTuq1xTj9so/njixYguGkT2gj28B2MoB6O27bv7LffeFL+/Z0/dzzfnVc4450WuKE685/fSnP129kphbNrzzBq8p/vCHPxzwTm29nnYdr6dNzLnms8z5/B/mj0fit1cC7Km3V/7x3Ln+2yvvkS01Y9E4/2xgktpezR+P7Nq1K+DPwRnNc+sGoNcfj+jPOSbJrtvSF3yQo6/XXnvt0D8eYeR++PDhausGv5shD5F99fuY/nhk9X880hZDWW8/LeiRjtvj9UF/JYgtHP2VoEAf247Oh9sEv7H15wp/Jxj9laB9TTG3avjDLUDPO3Jw143+SnD4nPfnGn/byAXourSDtmlGGhb0/CtBRPTck2dUz4h+27ZtVWTC+pw/tM10fM3mK13mVoXW/fK6J/4zdu6tt/p3kwDsjOyxL0/gQ14Fem3frGBOjY111+EIdAyc6TppQc+tG0TwhD3SuKd+GOjtJFOXzVO6u/amtR2+tvCJap4SoJ9/++0+0AF5C3cLewv6L+KbgUDfZA6GL05bJ9KCluk6KdB31w7aar9d7LdA7+ZnboqbfAqtqwyhDodhuk6uBvT4X9m6rRvrnNRl85Turr1pbYevLXyimidF9Oti2xpsbfjirKHR3INI6rOgZbpOAvS4hh9jh23dCPTdtZm22npb+g0fq/oq0CeZNcZ17K7TEuqYPKZTEpCfmpoKkFu2bBkK+ptvvlkRvfZFcztqJ/QJ9G68dVM8dsMl1JuCHrAX6LtrD2OMlsZuy13pu0Dv5l9uirM6B6GfkozoBfoybKEr0GzjOAR6Nx9zUzwRoIezwPgI+6YR/fXXX5+8j946Hz9UbJ7SZdib1jm9zgJ9el4y2Iub4laCHk/G7tixIwj0ZdhNBgfM6gfe4xHo3fzGTXE2A2dknZIwfOTXRfR8aAoPTuHpWIG++/biDcMu6xfo3fzHTbFArztXstlAl+HZprEJ9G68dVM8didPRfB1eYzo4/vo44j+jjvuCB/84AfDddddV+3Rs72Usw26liqvvO7aotb20trCJ6q50H30Y+dfZHPddS6CdpjEhDQBPd51c/vtt4ft27cL9Po2kttRO6FPoHfjrZvisRvuMMDz+mpAf9ttt4WbbrpJoBfox26/UUTWCX0CvRtv3RRnNVxCPZZ0pqYR/c6dO8P09LRAL9BntV/aadulQO/GWzfFWR0lBjzP6TgCfRl2wPWW9Flvgd5n3vXHI5cj09WCfuvWrdW+fvyBYQEy6Jotp7Sb8WcNNrTOl25lruZBP8bmtr0ynAwg50EAM7qAxOsPNm3adNXbK+1dN/gxlls3An0ZdiM4j3ad6XM9gV6gH7VzWbAjTeBDQhfzAPtBt1cK9KN1+lGvs9qb/PUR6N3WyE1xtk80gb77ayzIt2ONBXq3dXJTnA30jNpj4NtzRPc2ot+/f3/1ygNt3ZRhH/qgyLPOAn2eeU7Ys5viiQM9YM+tG4G+DLtIOERWuyxNv0Dv5lduirM6lI3eU2nu2wv0ZdhDaYCdlPEK9G7+5aZYoNdDR1ltYFJgV3I/BHo33ropzurkqSje5imiL8MOSobsJIxdoHfzMzfFAr0i+qw2MAmgK70PAr0bb90UZ3VyG72n0oroy7CD0kHrPX6B3s3P3BQL9Iros9qAN+SkX69AcLQBgR5RhiL6MuzA0dH0oXb5KfRqDfQKhNz2UIaDp7ZrbJ5AX4YdCPS+66ytG7f5d1Oc9RPNQj2VFujLsAOB3nedBXq3+XdTLNBrjz6rDQjy/r4u0LutgZvirE6eiuJtniL6MuxAsPddZ4Hebf7dFAv0iuiz2oAg7+/rAr3bGrgpzurkNnpPpRXRl2EHgr3vOgv0bvPvpligV0Sf1QYEeX9fF+jd1sBNcVYnT0XxNk8RfRl2INj7rrNA7zb/booFekX0WW1AkPf3dYHebQ3cFGd1chu9p9KK6MuwA8Hed50Ferf5d1Ms0Cuiz2oDgry/rwv0bmvgpjirk6eieJuniL4MOxDsfddZoHebfzfFAr0i+qw2IMj7+7pA77YGboqzOrmN3lNpRfRl2IFg77vOAr3b/LspFugV0We1AUHe39cFerc1cFOc1clTUbzNU0Rfhh0I9r7rLNC7zb+bYoFeEX1WGxDk/X1doHdbAzfFWZ3cRu+ptCL6MuxAsPddZ4Hebf7dFAv0iuiz2oAg7+/rAr3bGrgpzurkqSje5imiL8MOBHvfdRbo3ebfTbFAr4g+qw0I8v6+LtC7rYGb4qxObqP3VFoRfRl2INj7rrNA7zb/booFekX0WW1AkPf3dYHebQ3cFGd18lQUb/MU0ZdhB4K97zrHoP+fvV4IvV448U//FObPng1zc3PVMT8/308jb3Z2tn9+bHk5LO/eXdX7Txs3ZuVIi+3Hd+FzTZyFeiot0JdhB7nsTXrS9hSD/r/2euH/3XlnWHjjjTB/5kwf5gNBf/58eOdv/zYcnpoKf7Fhg0DfbGcgvSBdM9QU3G2eQF+GHXTNrts2HoIecuPUVAXpF/7mb8L5994LCyaKHwR6RPhLy8vh7771LUG+GeQxT2U4uIV6Ki3Ql2EHpdj7pI7Tgn7qMuj/84EDYXlpKSwsLDSK6AH6xeXl8MJLLwn0zfldhoOn4G7zBPoy7GBSAVhKv1KgP3DgQFhaLegXF8PBgwcFeoF+Jbgs1FNpgX7lfJUCHo0z77oL9Hnn29i3m+Ksn8YpuNs8gb4MOzCGn9X+pPeSfQn0bn7mpjiro1mop9ICfRl2IOD6rrNA7zb/booF+ub7a1nnSjAswyc81lmgd7MtN8VZ4ZWK4m2eIvoy7MADbtJ5xbYE+itzkdku3BQL9Iros9pAZsfS2BL2LdC78dZNcVZHsNF7Kq2Ivgw7EOx911mgd5t/N8UCfSLiEYjKsMdS11mgd7NvN8UCvUCf1QZKheskjVugd+Otm+KsTp7arrF52ropww4mCXol9kWgd/MzN8UCvSL6rDZQIlgnbcwCvRtv3RRndXIbvafSiujLsINJA19p/RHo3fzMTbFAr4g+qw2UBtVJHK9A78ZbN8VZnTwVxds8RfRl2MEkwq+kPgn0bn7mpligV0Sf1QZKAuqkjlWgd+Otm+KsTm6j91RaEX0ZdjCpACylXwK9m5+5KRboFdFntYFSYDrJ4xTo3Xjrpjirk6eieJuniL4MO5hkCJbQN4Hezc/cFAv0iuiz2kAJIJ30MQr0brx1U5zVyW30nkoroi/DDiYdhF3vn0Dv5mduigV6RfRZbaDrEG3D+AR6N966Kc7q5Kko3uYpoi/DDtoAwy73UaB38zM3xQK9IvqsNtBlgLZlbAK9G2/dFGd1chu9p9KK6Muwg7YAsav9FOjd/MxNsUCviD6rDXQVnm0al0Dvxls3xVmdPBXF2zxF9GXYQZug2MW+CvRufuamWKBXRJ/VBroIzraNSaB3462b4qxObqP3VFoRfRl20DYwdq2/Ar2bn7kpFugV0We1ga5Bs43jEejdeOumOKuTp6J4m6eIvgw7aCMcu9Rngd7Nz9wUC/SK6LPaQJeA2daxCPRuvHVTnNXJbfSeSiuiL8MO2grIrvRboHfzMzfFAr0i+qw20BVYtnkcAr0bb90UZ3XyVBRv8xTRl2EHbYZkF/ou0Lv5mZvibKC3QK9Lx6B/9tlnw1NPPVUdMzMzAce+ffvCzp07w/T0dNi6dWtAHbaXcsJB11Llldd9Wyx9jeETmAPIqampKn3gwIGwtLQUFhYWwtzcXHXMz8/308ibnZ1dcb64uBgOHjyYjSEdWLfuOxeBO0gK9N23gw44a+vBJtC7+Zmb4qxGOwjyuCbQl2EHgr3vOgv0bvPvplig14+xWW1AkPf3dYHebQ3cFGd1ckX0ZayzYD7Z6yzQu62Pm2KBXhF9VhvQh4C/rwv0bmvgpjirkyuiL2OdBfPJXmeB3m193BRnBT0BQODH5/oxtiw74PpL5l13gT7vfBv7dlMs0GvrxsUGjPFLf2YbFOjdeOumeOxOxuidxgUHZ551duQxor/22mvD3XffHfTAVHftwq690nnWmX5HX4TUA1N55v6yjWdVNna4W8e1ALeGNih9zTXXNAL9ddddVxlq3FasH9dtntLdtTePtY3tLz736FNKJ/uFgMqmUZZPxsZPw9pz+2Qs0hcvXuw/Gcv2KGP9zKeMr0/SOfu4WtlgDN11vLVM1ihBj8lHHxosgspk3kLQmuT1+5QvAvpYh/WCnu1oTQeu6cCLrQZQyrgG5cFQBPru2oNA4Le2Kb8joAX6DOuSWoAu5MGpVzMOGB2OJnv0N954Y/VSM+wxxjpSMLFlUtfjPFte6Q1XzbHmZH1zQt+g3WE+mdckHddj3WH5thz0xHv0dqsGLzKz59y6Yd6grZtR20c8LrZvx8O0nb9B9Xgtlmx71LI36gYnqT3CG3JQv3AdRodj8+bNYdeuXQN/jCXoU+3ahYNOnA/SrWvrg1aJ82ftOk5jPpgXpz3nin6BPtAn2gJ6z3mL19Curb0W58d97jTo48GmzjFBMLhNmzZVxyhAn9KjPAF9VDZAp6YcVbvjbIegR5+pB2nkr2brxiOiZ38nTdr1t+lUP4sFPScGcpSgT02y8gT50m1gLaDnu+nt++gF+iu+BHY1tSuBfsyg59fUpguiclcMWXPRnbkQ6H3XUqCPQL9ly5Z17dEDTjRqgcrXuEuYfxvV2fSkjZ0+gT4iDYntUqTrtm4U0V/tP5g3rnNdOrX2nQU9DQsyNXBOEiW3b5qCvu6BKeii7pTeOI9lrYzL6Pxqgy9xTmgjTcbOsnUybqOu3Kjz4W9oE3IcoB91f8fdnl2HYbps2UFptBNf7w1rvAvX40HjnIBnGqDHgR9j77nnnuqumyeffLL6r1j+Z+zevXv7/xk7CPTUl5pwXqPswvxqDBnug27wQBltCnLQmgy7PqjuWq9Zf4Of8RztIaJ/5513wvHjx6v/hsWtlMeOHatur+SePCTyeJslbq984YUX+uPk2NGeHd9q0raNtY5zPfWonzJui/nDZFzv8vlkGGlN5/oLuZbrNKZhE4NyKdAD8IA9DvxReAr0g3Sgz1Y3y1q5lnGpTndttsnaWptCmnVsPvNS0tZJXR9HHm0euvFQIvyN/fjGN75RgR5/Dg6Y4zh69GgFfuQR9oQ8zuM/B+fY0Xe2u9q0bWMcczCsTeqnjMszf5iM61Xnwyq1+bo1LjsO5MfnMDx8lbRbN/v27asi+ieeeGJNoLc6kGZ/rIzL6FzbNMNswNpPbMvD6npfR38JeqQBIYB+aWkp8O6aFOiPHDlSAf/EiRMB8Ef573//+1V97zG1QX8vNpounTNKT0mOk59+gDyeit26dWu49957w/PPP19F8IA9jscff7w6//jHPx74wBTqsB0uNs5tmtclL/2IpHlY/zyk7Hk1eXVrsJo2VlPW6oNvoC7yAHz4H7ZusBWDSP3UqVPh5MmTFcwBfMAf+TiwtYPzw4cPhwsXLvRBb9sfdXo141xL2WH9HVWbPcCt6wf23eODYwasceA6ovnrr7++Av3+/fsDInkcjz32WCUB/zvuuCPcdNNNYdu2bVUdGCsOtsdzK3ltkFxt+UFt6Vr3bdqucWzbTc5h6x4H7Nz2D6D/zne+E95///1w+vTpCvSAPdOAPqL4N998s5+H6yj/0ksvVR8Utr0maY9xN9XZpP/DyljbYLp33333hdIOROwcM9L2QP6DDz5YRe/Yl+c+PST26L/0pS+F+++/P3z+858Pn/vc5/p12Z6VbNfmKV2eveVec9hljmM146IvWJ9B3mc+85nwta99Lbz88svhBz/4QfjRj35UHUj/8Ic/rPKQ5jmuIx/lv/71r1f1c4x1UnSsZs5t2R4i19IO/KlIfDzzzDMBB/IBdEAeWzbIe/rppyvgP/roo/385557LuCI27FzyWs2T+ny7K2ra077biK5BYpvxdbXMDfYFn3ggQfCQw89VH173rNnT3j44Yer8927d4dHHnkkfPnLX64k0iiH8vBH6O7q/I5yXD3eVdIWich6nAcMEu3zB1hu3wD2vPsGHwJtmS/189JdU5oH33mgzyKI4kE/g+S3Z2yT4gD84XMoi+tYP/ok4OdJUZwAAAqvSURBVA4/RR1eZ/tNZIm20GsyMZNUBovb9FhNv1OLn6rPcvZaXX9sGaXH+wGt+c0/v3V2n8rn+jBwgh+hHKHPNMvhnGmUBdhZF/nIg7TlWF7yaltoHejHtYgwGBwwIBgU9MAIaUjIZ/SANA0N5VgmTo+rr2r3akPWnEz2nNBnYh/DOf0HZXgOX4Mf2nq2nPU/rf3wte9xYkuRNIp4vMiH8SBygMRXR5ShoTGfEYj9EEBdtmfTzJNs/i1Mc9XNuaLfccuF51hvpAF1bNkgDZ8j5FmOecynX8pemtlLp0FPKFtjoOHYPKQBdvwIxB9eYXQ0Lkj8MII8lIWx2v1DtMn2bJofBrwm2cwoNU/dmyf6Hf2D51xr+BiDK1xDGtL6MPKYT99kfcnBNtP7yEc+Ej760Y9Wx7A0rrMMJeoOS8f1WH5QPtttUtaW4VhieeuttwYeKP+xj32sf+AhKJyjDuQXvvCFCuS4OwAGBONCJIHzu+66q7qX/vbbbw+oRz1sD+epcbGPLE/JsilpywxKsy7KWD2rScdtsG6cH/fDXq/Tz7bqrtfl27bjNnhOaduI67FMnI86tl6T9FrbiOs17VOqHvPYBsdBG4SEbeLYuXNn/7jtttsCD9gvnglJHbg26oN64nZvueWW6jbJX//61+HQoUPh9ddfrw6kcbz22mvhl7/85Yq8X/3qVwHlv/vd7wbUj9tswznnA9L2l+uDdSOX7Lpyra209hCnadM93MiPp0FxDEvzpv8mZW2ZuB71DMpn/SZlbRnUs3Wpwz5kgDy8lAwHHpCyBx6Ewv29iOAZTTDCwO2Ud955Z9ixY0eYnp6u6rEdSqvbptlH9i8l2VdKlrF1U2lbPnWd/RjUXtwG24nz4zbs9To9bKvuel2+bTtug+eUto24HsvE+ahj6zVJr7WNuF7TPqXqMS+WtEErY9uGfXscN9xwQ8AB3R/4wAf6aTww9e1vfzu8++67/Sdf8RQsXnOAJ2FxII0HqPDgFJ+SRXk+MOUxnnHrtGvINO0zXvdB56zT45OhXZT28WL7KLEdK59I5QcBJvWzn/3sivvp8TURByJ6fAJv3779qidj2U7ctj1X+tJTyJqHyZgH+kSO9aB/4ElNpCHhcwD9N7/5zf4rEPjKA0gAHgfgbl9yhjRegYCHqFA/R/89dIxyfTr7Pnq+byaWhD/zYShIYyFhgPgEBOgR0WPbBls22LpBGvfv4qvVoHfdsF1I6LLng9Lsx6AyuqYXnq3VBmBfk3AQXpDwOfQJ77rB2yj5LhtAnqAH5JHGS82Yj3fgnD9/vv+uG8wJx8Y05wn5TdNxGzwfh2SfrKzTY8vEafLMyrgMzjsNejv4OM3JwOQibUGPrRts0xDykNjG+epXv1qBHl9B8YEAY2W7bK+a1MtOxbS9Vpe2i1xXRvkC/VptwNoX02yL5zkk/AUBFfwN/gOdiOj//Oc/V1sziNZx4JXE3KaBRGSPfLzQDKDH++tffPHFqj7Gwb4zbcfWNB23wfNxSPbJyjo9tkycJn+sjMvgvDjQpyYBeYwwAHDu0QPwiORxlw336fHDCEGPyWV7nGieQ9rrNl9pAbs0G4B/4aBf0F8AN7yzhhE9IncAHXBHGlDHgReZAf68BtDjvTeoX9pcrmW8rqDnYtvFZ5qSsBxU1pZZyySgPiN6/LBx9913V/vx9vZIgB7gx6/h+CEWHwjUuxadqTp2jKnrytMHRNttAH6GMdDnAGq+jx5bN/xzEUTwADzPAX5G+nijJV5r/L3vfa8C/aj9sO1znOp/BXp+ZUCBQWk2wE/RQWVtmbge9ViwxWmUifO4oIPyqatOsg17HXmM6PEDEf9KkLdV8n5eRPbYo8dripuCnnNUJ+N+2P6xDsoMSrMNlBlWtq5M3AbbifPjftjrg9qO69WVtfm2bfaH13lOyXxK5kPWpVGW5Zum4/bWWq9pn2J9PG8q2b9YUj/y47ZsXirNtuI2BuXTZylRF2nUwR798vJytQfP7Rrsx3P7BtBHmgfKxKCn7lHL1Bg5X9AVX+c5pS3DenWSZW1dOx6bzzbsdZu216t6cWUWTuVfVbmho8T12Dbzc0oLUqsX+YA9QM+tG7wpjz/EAvI4VhvRcz7rpO1DnGYd5A9Ksx7KDCtbVyZug+3E+XE/7PVBbcf16srafNs2+8PrPKdkPiXzIevSKMvyTdNxe2ut17RPsT6eN5XsXyypH/lxWzYvlWZbcRuD8hHJ40AZ64M4J+gRwRP0gDrPeecN4I88RPbY6rH/MEXdo5apMXK+oCu+znNKW4b16iTL2rp2PDafbdjrNm2vX643Gb/G206OKs3BQsK4aGC2/cuTUF0j6Hft2lXdYYNIngf26vE0LB5uwO2VuA2Te45WD9uzOmw6LmvPbTmlu2uXJa6ttXOm4Y+YC4CefyXIO2sgAX2eA/w2DxH9wYMHVwRAaBftUa42zX6xnm0Hea0+OLiuSbtYqbFx0biYMLoY9IA7DsB+FKBP9UN52ncfpQ3QridV2rHC39DPUYLetj+K9KTOI/vVdIw9VuiirJsERva8jrE3BX3dHr2dP9uuzY/TKBfn6bzlkVOGyI/2lZKD7CdVPpU3qI21XkvpYUSP2yvXG9GvtV8e9VJzMSivSR9Zf0DZ7joWBx9LC3pMDK4jusAeIvbouXVjI3pE9YP26O0Ex/p4bsso3V27G/fa0p4gV6PL1huUXk2bTcum9An0zb7NNp3jIeW663Ap40IeDYwTgzyBvrt2wHXuirR2PYoxsb1RtFXXBnVYST8cxdZNnd5JzbfzMCw9kjEMU5LrOgcDfUhTrjbN/rIez+skyxH0uI9+UETPrZu6H2PRXt1R1wflN4tsNE9X7iCqs7E4n3OG/DjNsshnetySfYAc1R69bXMc6XHPyVraxzhZz6Ztnp2Lao+eGSg0KG0bGVaWyilZPm6jLn899VgXssmByALbNng0OwfoVzMH8Vg4XzY/bo9jTpW19Ww6boN14/y4bXvdtmfTbMvmNUnbtuM2eE5p24vrsUycjzq2XpP0WtuI6zXtU6oe85pIjnE1kn2rmw/q5XWWH5bPcuzLKEEf66YOq3NYOm6D5eP8uG17nXNCadtgvaaS7a5H9vvRTzSIotlB2/km6bgedQ7KZ7tNytoynBTm2XaoD2DnwTyCPvcePfXbfjJdN5Y4P24jvt6kvbgNnLOeTcdt23osnyoT59WVtfm2bfaB13lOyXxK5kPWpVGW5Zum4/bWWq9pn6w+6mqz5HggR7V1Y9vE3OCcc7SaNNth3TZLO5ZqDtY6Eeupx7qQdWkuWN31unwuDq/bdpCHg5CHtHmIMAT6tX+r41zHaxCvRXx9UD3WpWRZnlMyn5L5kHVplGX5pum4vbXWa9onq4+62iw5HkiBvn6bd71rzHlGO0i7vuuGnRmX5GTF7XuBvprwaA8/7pvOL4FZ81A/D7TrNkq7rqPauiHMbNujSo9jjtG3cbTLNlNj7/R99Bw4ZGrwnHBIwH9cEb3th9Lji2I0t5M/t9bnYtDjVQd8EtY+FYs8PhnL6/YVCFr3RuveqNBYP4FyLFQd6JnPKH8UWzccD9vmuWQZtqZ1rl/nUYLevgJBc14/55fnZmiB1kMeAyV066RAX4YdCAi+6yzQ+8z//wciGyOd7BJLRwAAAABJRU5ErkJggg==;" vertex="1" parent="1">
          <mxGeometry x="341.44" y="180" width="250" height="150.13" as="geometry" />
        </mxCell>
        <mxCell id="HamWP4uttsAGSkK_IS_m-22" value="" style="shape=image;verticalLabelPosition=bottom;labelBackgroundColor=#ffffff;verticalAlign=top;aspect=fixed;imageAspect=0;image=data:image/png,iVBORw0KGgoAAAANSUhEUgAAAXoAAADjCAYAAACLvt+vAAAgAElEQVR4Ae2d349dV33FbzKJnR8mKCoSfQFBW/H7VwmNxBvEIYAQJrbj/LKTOKnyAEgkSBCJFKlvgNR/oH9CX/kREA/wAFRFQaC0UitSVNsztuOYOMSxnZ+F7mpde02WD+fcmTl73xl75vOw9d1377PXOXed9V3znXPPPXcymUwKrQ0HV1xxRelr4ve6664ru3fvLgcPHiwHDhwo+/fvn/Z37txZtm3bVhYWFqZr81wYK8fotzlXm5FH6UXvy/HrX/96eemll8rS0lJZXFzsbadPny67du3CAza/D5I4rZLextyNwsfo0VkrnQ3h2OAdMXo0F1qBjCCjqrLpGrxfCx+jR2etdDaEY4N3xOjRXGgFMoIMjH7z/wtbdY5baWUeODZ4R4webwudQUaQUWUCSrC+JnwqenTWSmdDODZ4R4wezYVWICPIwOip6Ks00EpLY3Bs8I4YPd4WOoKMIKMqyZVgfU34VPTorJXOhnBs8I4YPZoLrUBGkIHRU9FXaaCVlsbg2OAdMXq8LXQEGUFGVZIrwfqa8Kno0VkrnQ3h2OAdMXo0F1qBjCADo6eir9JAKy2NwbHBO2L0eFvoCDKCjKokV4L1NeFT0aOzVjobwrHBO2L0aC60AhlBBkZPRV+lgVZaGoNjg3fE6PG20BFkBBlVSa4E62vCp6JHZ610NoRjg3fE6NFcaAUyggyMnoq+SgOttDQGxwbviNHjbaEjyAgyqpJcCdbXhE9Fj85a6WwIxwbviNGjudAKZAQZGD0VfZUGWmlpDI4N3hGjx9tCR5ARZFQluRKsrwmfih6dtdLZEI4N3hGjR3OhFcgIMjB6KvoqDbTS0hgcG7wjRo+3hY4gI8ioSnIlWF8TPhU9OmulsyEcG7wjRo/mQiuQEWRg9FT0VRpopaUxODZ4R4webwsdQUaQUZXkSrC+JnwqenTWSmdDODZ4R4wezYVWICPIwOip6Ks00EpLY3Bs8I4YPd4WOoKMIKMqyZVgfU34VPTorJXOhnBs8I4YPZoLrUBGkIHRU9FXaaCVlsbg2OAdMXq8LXQEGUFGVZIrwfqa8Kno0VkrnQ3h2OAdMXo0F1qBjCADo6eir9JAKy2NwbHBO2L0eFvoCDKCjKokV4L1NeFT0aOzVjobwrHBO2L0aC60AhlBBkZPRV+lgVZaGoNjg3fE6PG20BFkBBlVSa4E62vCp6JHZ610NoRjg3fE6NFcaAUyggyMnoq+SgOttDQGxwbviNHjbaEjyAgyqpJcCdbXhE9Fj85a6WwIxwbviNGjudAKZAQZGD0VfZUGWmlpDI4N3hGjx9tCR5ARZFQluRKsrwmfih6dtdLZEI4N3hGjR3OhFcgIMjB6KvoqDbTS0hgcG7wjRo+3hY4gI8ioSnIlWF8TPhU9OmulsyEcG7wjRo/mQiuQEWRg9FT0VRpopaUxODZ4R4webwsdQUaQUZXkSrC+JnwqenTWSmdDODZ4R4wezYVWICPIwOip6Ks00EpLY3Bs8I4YPd4WOoKMIKMqyZVgfU34VPTorJXOhnBs8I4YPZoLrUBGkIHRU9FXaaCVlsbg2OAdMXq8LXQEGUFGVZIrwfqa8Kno0VkrnQ3h2OAdMXo0F1qBjCADo6eir9JAKy2NwbHBO2L0eFvoCDKCjKokV4L1NeFT0aOzVjobwrHBO2L0aC60AhlBBkZPRV+lgVZaGoNjg3fE6PG20BFkBBlVSa4E62vCp6JHZ610NoRjg3fE6NFcaAUyggyMnoq+SgOttDQGxwbviNHjbaEjyAgyqpJcCdbXhE9Fj85a6WwIxwbviNGjudAKZAQZGD0VfZUGWmlpDI4N3hGjx9tCR5ARZFQluRKsrwmfih6dtdLZEI4N3hGjR3OhFcgIMjB6KvoqDbTS0hgcG7wjRo+3hY4gI8ioSnIlWF8TPhU9OmulsyEcG7wjRo/mQiuQEWRg9FT0VRpopaUxODZ4R4webwsdQUaQUZXkSrC+JnwqenTWSmdDODZ4R4wezYVWICPIwOip6Ks00EpLY3Bs8I4YPd4WOoKMIKMqyZVgfU34VPTorJXOhnBs8I4YPZoLrUBGkIHRU9FXaaCVlsbg2OAdMXq8LXQEGUFGVZIrwfqa8Kno0VkrnQ3h2OAdMXo0F1qBjCADo6eir9JAKy2NwbHBO2L0eFvoCDKCjKokV4L1NeFT0aOzVjobwrHBO2L0aC60AhlBBkZPRV+lgVZaGoNjg3fE6PG20BFkBBlVSa4E62vCp6JHZ610NoRjg3fE6NFcaAUyggyMnoq+SgOttDQGxwbviNHjbaEjyAgyqpJcCZYtca+99tqye/fucvDgwXLgwIGyf//+aX/nzp1l27ZtZWFhYbo21xgrx+ij1yEN2OAdMXq0ElqBjCCjyuivvPJKjJ7/CKo0VKNFG7wjRo+3hZ4gI8ioSlKMHi210tIYHBu8I0aPHkNHkBFkVBm9Eixb4vJhLDpLPcyjb4N3xOjRXOgMMoKMUUaf5j7Ux+jRWa3OVlpvg3fE6NFcaAYyggyMnmvsozRQq6EW623wjhg93ha6gowgY1SSK7FWalT06KxWZyutt8E7YvRoLjQDGUHGXIxe+ENGf8stt3B7Jf9FjNJdV7c2eEeMHm8LjUBGkDEq4ZRYs5qN/vbbby8PPPDA8n30Dz74YOE+evRXqz+vt8E7YvRoy9qYRGeUybF+MtPknXSq6DF6Em+e+WKtOWL06C30BhlBRtUfOyVYtsTF6NFZ6mEefRu8I0aP5kJnkBFkzM3o9QgEVfT333//8qUbPQ5Bl262b99errrqqj/bt/9otDo+cDa31m3wjhj95j7fa8xnyFgjYX9myF5vY3b0uKIr+q7R33rrrUV/BDB6dJh6GdO3wTti9GgqdAQZQcagia9mGxu8Y665/vrreyv6T33qUxg9d91U6c46s8E7YvR4m7XBh7ENTcYG7xgkF4yepEs9zKNvg3fE6NHcss5sSsSLP0gdw4ceauaW60W2jH7v3r3Ta/T33HPPNOpWS12j12UdXbrJNfRnn4/JFVcUWocDFS3i5corp/8hfPXxx8uZP/6xHHr22XL45Mly9NSpcuT3v5/29VrthddeK5/evfv8fxRwepGmNlMOUtE3rOiX/3r2YOoD1z179kwNXs+i1zPpdR+9rtFfffXVTf51n7X/zTj3V1dcUWjnOXjnZFL+emFh2v5mYaHo9bcefri8/J//WZ75138tx3/xi3L0Zz+b9p/9t3+b9o/9/OflxX//9/LwrbdOt4fLN/S06fJlx44dhVbHgar1ldpb3vKW6Q+P+EdHVNXrrpvPfvaz5cYbbyw33HDDIIbOTxd/K5+za264ofzjtm3lT5MJbQYHZTIpq2n/NwNjq3L8zwsLZccNN5TrNok/Tn71q18VWh0HTz75ZJnVfvOb35Rf/vKX5Ytf/GK54447yr333jut7HUp55vf/GZ56qmnyq9//etBDJ2fLv5WPWdPiounnirPP/FEeWXfPlpw8Oq+feW1u+6atpfvuKO8vHdvObdnTzm7e/e0vbR3b9G4xrJpDC4v1tKZf/mX8uR//EeR3jZDrk2effbZQpsvBydPnizHjh0rjz766LLR33fffdNLOd/5znfKH/7wh6JtdB5OnDgxbZyTGefkxImy+Pvfl0NnztDMwYsvlsNnz5YjZ89O4/+cPj2Nh8+cKW6L586dn9eaF1+cNs25D59v6OnIc8+VZ0+c2DTeOFlaWiq0+XJw/PjxcujQofLlL3+53HnnncvX6fUbst/61remYuqeg6NHjxa37hyv53u+Lkd+pZUjR46UxcXFaT4fPnx4+lrvxeO5jccWl5bK4SNHlre9HN87x7xyPkwkDNp8OVA1L6P/yle+Uu66667pB7G6fKMPZ7/97W+XZ555ZvkcKAGXk5Bzs8wLGp2t0TR0m30aoDTlbdz3a28Px7M5vpz5oaJfh/9obPRf/epXLzJ6VfQ2eielxeTXxJWrFTi6mKMsFlRgSFM299SXxxXh8GIONxsfVPTrUDXb6B955JGLjJ6KfvNWUDbU9Yw2c0Wbt/s5577MzPPqr+exsq/11T4V/TpU9L5G/6UvfWl6jV4fxOpeel+j1wewriCcAH5NHKi0jh4ti7rkRZtysHTiRDl09Gg5fOxYUV/xSE//yPHjxW3x+PGiNt1Wfbhc5mDp6NHlnNwMOTjxB37ENz78nAcX+hdaFf2+ffumJi+jd0Xvu3K0X4tqHsewWTCVhLrrZum//5tmDp5++jwXF+KR3/62LD39dFnU66efLkd/97ty7He/W+Zr8be/LWricNr3euNt8bh48mRZOnasHF1aWr4p4nLOn4k+CKTNlwNV7BKJrtHrPvq77767qKrXffS6Rv/8888v31rpc6E17hPj/Jw4UY6fPl3O/dM/lfLWt9KSg7/8y1LUNKZ4443lT9ddV/7v+uun7U8RPf7H664r5S/+4o11ibeF+6889lg5/vzz5ZlNkoeTj33sY4VWx8FNN91UZjXx+/GPf3xazetuG1XzijZ7zd18882DGFrfxd/K5+yjN99c9i4slJ9PJrQLHPyiw8XPJpNy5K1vLf/7t39bXvvwh8vrH/lIee0jHymvfOhD5dUPfej86w9/uPzpppvKf+3YUbQ9fL7Bwd9PJuWjH/1o+djf/d2m8EeeddPzXJp5PefCPzwio1d76KGHpg81m9f+Nj2uHt5Fe4MD/XiN2sLC9NlJj/7DP0wfarZ46lRZOnXq/MPNdMnr1Kly+MLDzV54/fXymT17zj9rCS7f4FIPeFtHb5j7vjbTE9o2+r34yZWKeSw6iXpCpS7b6IdHeHrl7CdTJnez+jy9cuDplRdM6uuPPVbOnjtXDuv2ysXFcvTYsbKozzf0JakLY6dffLF8fteu86bG0yt5euXc/+Jsgr+eXVNKzvxTgno0sSt6Pb1SPzyiPwI8wZJnh6dexvSlP61z5Hn0aCp0BBlBxqh/17oG330t/DFGb5za42P91tC4Dd4Ro98a532V+Q0ZqyRq8I+ADXkoCn/I6G+77bbpI4j5zVh02EKHwsDo0VKPliClh5RBU+/bdsjgczx/HHy1l268vm+fjKHbrgZs8I5U9GgkNAIZQcaaDN7rbMizIkaPzqyXeUUbvCNGj+ZCa5ARZIwyeq/H6NGStbAR0QbviNGjx9AhZAQZTY0+cfVTgN376H3Xja7fc40eHaZexvRt8I4YPZoKHUFGkDHa6JVc3Za4afT+3Vj9Zqx+HByjR4OplbF9G7wjRo+uQkuQEWSMMvquwXdfCz+v0XeN/pprrikLF77NmMdinByjj16HNGCDd8To0UpoBTKCjOZGb+yVjJ5LN+jQWhkbbfCOGD2aCi1BRpCx7ka/c+fOsn37dq7Rb4JvRtfqqHa9Dd4Ro8fbQlOQEWSMMnqvV4Jl87jiUEWP0aO/1ElN3wbviNGjrdATZAQZG2L027Ztm16jd4L6ePxHw6+JaHWWBqwfR4wevYReICPIqDL67tMrjavEG7rrRhU9Ro8GrZWaaIN3xOjRVegJMoKM0Uav5MrmRxUbe9alG4weDVonNdEG74jRo6vQE2QEGaONXhhp9NnXnIxePwaue+fz9koqevTXUn/WoSJGj7ZCW5ARZGD03P1SpYFWWhqD40reEaPH20JHkBFkVCV5VvHZFz4VPTprpbMhHBu8I0aP5kIrkBFkYPRU9FUaaKWlMTg2eEeMHm8LHUFGkFGV5EqwviZ8Knp01kpnQzg2eEeMHs2FViAjyMDoqeirNNBKS2NwbPCOGD3eFjqCjCCjKsmVYH1N+FT06KyVzoZwbPCOGD2aC61ARpCB0VPRV2mglZbG4NjgHTF6vC10BBlBRlWSK8H6mvCp6NFZK50N4djgHTF6NBdagYwgA6Onoq/SQCstjcGxwTti9Hhb6AgygoyqJFeC9TXhU9Gjs1Y6G8KxwTti9GgutAIZQQZGT0VfpYFWWhqDY4N3xOjxttARZAQZVUmuBOtrwqeiR2etdDaEY4N3xOjRXGgFMoIMjJ6KvkoDrbQ0BscG74jR422hI8gIMqqSXAnW14RPRY/OWulsCMcG74jRo7nQCmQEGRg9FX2VBlppaQyODd4Ro8fbQkeQEWRUJbkSrK8Jn4oenbXS2RCODd4Ro0dzoRXICDIweir6Kg200tIYHBu8I0aPt4WOICPIqEpyJVhfEz4VPTprpbMhHBu8I0aP5kIrkBFkYPRU9FUaaKWlMTg2eEeMHm8LHUFGkFGV5EqwviZ8Knp01kpnQzg2eEeMHs2FViAjyMDoqeirNNBKS2NwbPCOGD3eFjqCjCCjKsmVYH1N+FT06KyVzoZwbPCOGD2aC61ARpCB0VPRV2mglZbG4NjgHTF6vC10BBlBRlWSK8H6mvCp6NFZK50N4djgHTF6NBdagYwgA6Onoq/SQCstjcGxwTti9Hhb6AgygoyqJFeC9TXhU9Gjs1Y6G8KxwTti9GgutAIZQQZGT0VfpYFWWhqDY4N3xOjxttARZAQZVUmuBOtrwqeiR2etdDaEY4N3xOjRXGgFMoIMjJ6KvkoDrbQ0BscG74jR422hI8gIMqqSXAnW14RPRY/OWulsCMcG74jRo7nQCmQEGRg9FX2VBlppaQyODd4Ro8fbQkeQEWRUJbkSrK8Jn4oenbXS2RCODd4Ro0dzoRXICDIweir6Kg200tIYHBu8I0aPt4WOICPIqEpyJVhfEz4VPTprpbMhHBu8I0aP5kIrkBFkYPRU9FUaaKWlMTg2eEeMHm8LHUFGkFGV5EqwviZ8Knp01kpnQzg2eEeMHs2FViAjyMDoqeirNNBKS2NwbPCOGD3eFjqCjCCjKsmVYH1N+FT06KyVzoZwbPCOGD2aC61ARpCB0VPRV2mglZbG4NjgHTF6vC10BBlBRlWSK8H6mvCp6NFZK50N4djgHTF6NBdagYwgA6Onoq/SQCstjcGxwTti9Hhb6AgygoyqJFeC9TXhU9Gjs1Y6G8KxwTti9GgutAIZQQZGT0VfpYFWWhqDY4N3xOjxttARZAQZVUmuBOtrwqeiR2etdDaEY4N3xOjRXGgFMoIMjJ6KvkoDrbQ0BscG74jR422hI8gIMqqSXAnW14RPRY/OWulsCMcG74jRo7nQCmQEGRg9FX2VBlppaQyODd4Ro8fbQkeQEWRUJbkSrK8Jn4oenbXS2RCODd4Ro0dzoRXICDIweir6Kg200tIYHBu8I0aPt4WOICPIqEpyJVhfEz4VPTprpbMhHBu8I0aP5kIrkBFkjDb6PoP3mPCvvfbacvvtt5cHHnigHDhwoOzfv78cPHiw7Ny5s2zbtq0sLCxM/0jkseT6HKePZvs0YIN3xOjRSegEMoKMuRv9/fffj9FzeWi0zmZp1QbviNHjbaEXyAgyqhJQCdbXhO+KHqNHb6301sWxwTti9GgtNAIZQQZGT7VdpYFWWhqDY4N3xOjxttARZAQZVUmuBOtrwqeiR2etdDaEY4N3xOjRXGgFMoIMjJ6KvkoDrbQ0BscG74jR422hI8gIMqqTXEnmRMs+FT06a6mzPqzUneYxejQXOoGMIGOU0aehZz9xMXp0lnqYRx+jR2MzdAU5M8hZlfHb3Iei8K+55prB++i3b99errrqqouu79ceE+u3nq5Tfzr/qujPnTtXFhcXp21paamoHTlyZBo1/sILL5TPf/7zq9I5mrqsNXVZH/wlIdBMsL6+EgSjR2fzNsrUHkaP3i7SW4qDfv9dM7W8iPChSze33HLL9Juxsyr63P9FJ+/CB6c5T38+57AlrzqHiefXeW678znn7b2N5/Tac4qzKnpV86ruVdHv2rVreZ0xW0Qfl2NiemxWzO3p1+l6AoF1BM7i78orryxuetaNHoHQ/cKUjd6PQJiFx9z8zlUttz7PirVYY9fnvmWgG230Y9/HWtfl+17r2q2yPUY/cO97rQAy8dXH6C9dk64917l+I00n991n9L5W7zjvij55mWc/3/c893M5Y2P062T0119//ZoqeiXq5SysrXrsNh3H9eQh97lZjV7vMd+n+O2+Xk/OL5d9YfQNjL7PlC1Ii3Alo++7Rr+SiLTfvn2vtI75tv9drHQOfJ4y5jnI8Zq+taYonO6lG1fyjn0Vfc3+W6w1L0NYnu+LWtM3ztj0sxs+nR4S1WrH+4TkpPNcXrrRI4r9mGJdo++7vVLrvH9jdKPniRuv4Tw3Oh/d13mONJevW/S9P33WoyZMGf3LL788vbXy8OHD0w9fZe4yet1iqdj9MDaPxZgZ++ZzrFV/pX3mvPut9r1JcTY+SS53YlcjNBt9Po9e/U9+8pODz6Pv8uL9OHbneb1xWvY5Udyo86B9p9F/7WtfK2fPnl2+d/7o0aNFTQaveOzYsXL69OnyhS98YcOOeaO42nL71SUD2nw4UNKpsld805veVPbu3Tv94ZF777233H333eWhhx4qt91227Si94+POFEzDp0fbzM0z/h8zutaeL366qtLt2l9d6zF69SDjOwb3/hGef3118vJkyen7cSJE+WZZ54pihpTfPXVV8uePXumRr/S+2pxjGvB8PHkGo8R16btyfve975Cq+Pgve99b+lr73nPe4rau9/97vLBD36w3HnnneW+++4r99xzz7TpF6Z0y+X73//+6TnoYnj90Pnx9kPzjNed17Xw53PRjUMYOuctm/aT+37b295WHnnkkfKTn/ykfO9731tu3/3ud4uaxr7//e9P5++6667y9re/fUUfaHm8q8Hq4y7fY7fftz1j53NgIrOhzebgwQcfLGttyaku0ajpurx+RlD30qupqldL7Fy3Ut/rVtqO+dnn93LhxzoaivoPUZrQvN6TtKXLMvv27Zs2Ve7q6z/LO+64Y9p2795d9B+mtreehuLlwhPH+ed6n/iDQeL5D0j7eJA5z2p9a3JMiaSmMUfj+XVuT3/4XMBNPzfSU+rM+tJ/kNadxsyf/6u0/nLO2xD7ub4cecHoL9wBM+vkOWmG4qy1nnMSGiMTzH1t63lFryVunoSrOZepjW7fuNKSTFwGnxrKS4betmv2HiduPr1N9G+eLiMMRV9mGJqf57iwZ+GvZb7vfeT6nPe4o+eGordTHNpG40osJ5ETVQk4tC5x+7bpzufrPI4cd3/sfK5z35iKHlP069XM5/bGyPVrmR9a12Lc7yWPx2PG9/GvZ5SOfMnCxybT1+UaXabRJRtFfU6kpteO0uRGHnsNT8l9voccT3xvs5p58zi0fi3zud9c12Lc72UW7kQfFPoDw77oDwRX2m4e88KchbuW+b73ketz3uOOnlP0mGKOq/+ud71rueUHRdpWHz75rhtXV0pMXUPVnD40SrzE9z5zXn2P98XctuV84rqf+B5T1Lijtxma93Yt5nO/idtiPN9H4uW49pnnX+fWHz5+4AMfKGr6cL51S+x3vOMd5dFHHy0//elPy49+9KPywx/+sDzxxBPlBz/4wXJfr3/84x9PDf+d73xn8+OpfX96P+ItuUx9+Nyae5+P7niu8TZ9a7yuLxoj1+d2K80PrWsx7veSx9PFnejLOnqE7lDU3Kz5oXUtxoUxC2ct833vI9fnvMcdPWceuuN+rVsk3dfTKnXvvJr6b37zm4s++JK5y+h1p4M+PPvMZz5TduzYUfTNWW+vKBzv15h+3Y2ez5jb5Lj7Y+dznfvGVPSYol+vZj63N0auX8v80LoW434veTweM77mdM7ddD51frPpnM+r6VZe3V75+OOPT78wpfvlsx0/fryoaezMmTPTSl/bz+t4xuI6J8yjorXhmNwn/znubRW9zWrmc3tj5Pq1zA+tazHu95LH08XlEQiNHoHgL2DoSyvdb8XqtcSuWyn1b5b+VdZlHN3dcOutt07Fpz8S2s7NOF0sjbvlth4jvsHPpc6FNNPyGHVvue6lly6E7Ucg6MtR+kasjF19fUtWRq/+c889d9EXploeTyuszK1WmFsNB6MP4xx78m24GYVlgWpcRq9rpLqOptveZPYPP/xw+fSnPz398oySVNv5GFZjAsb3GuKlbfI+X46pEY/VROFJR/qCkXAee+yx6Rei9E3YQ4cOXfQIBL2W4eubsypAvN/UkMcyrjSf2661vxJ2zquf+Za5092O11cUjL6x0Q+JSkavD8Zk9DJ5fRir6v4Tn/jERY9AGFrP+KVt4pfC+Unjk8nqEQivvPLK9Lk2MnU3Vfc2ev3UoB+BcCm8B45hPjrf8kbfrQQyWdxP8Xmsuy636fa1ra43KqHS6HW9Xs+60fU0/cvdXcfr+Yh+M/IqY8//CvXal25k7GoyelX3WeGfOnWqfO5zn5tW9JuRF97T+RyarPXfq822vYSQ76lPGEPzHveaIfPXdvpAThW9PojVbW+q6HWNfufOnSsavfej6H1lzHn6G/dgsy73s85Rzrmf6z2mmOPud+fztdfI6HVpxubuJ1bK9N3XQ8384+Be17cP43tO0WNDMbftbp9zfetzvq+vNX3jjA3qf3ACIi88730l8VioafRa43H1ZfTdnxLMD2NVjXn7WSLObdxf6fiY3xoatx6sn67Ru7K3yet1i8cUe7/o7BLWmU8Sse1lAonenKrfwuiNR2x7rubF53obX74P7XutRp+aTazV9jfy/a72GLfqdlv+0k0LcfaJJ3E1r2v03Ype1+h16caPKNZ2XrcSprcjXhpVlM/XWs/H2HV9+zGWoubHGH0f7nqN5fH39dfrODbpfi6NRLmcyV1JlP4wFqPfvFqzBtaq47Hr+vZjLEXNY/SbV29953+FsfOXGLSRBZLR4hman+e4DzyPJ/e3lvm+95Hrc97jjp7zcfSN5zbdvozeX5jSXTd+2JQret11s5pr9Ln/7j5yTseX8z7ejGPnc537s3C1zWrmvZ0x87XW52tv0x1fj9d+L3k8HpsVfcyzYq7P7XLc/b757tgYo+9ieH+OsxWwG7MAAASZSURBVOZzTn2vccx5jynmeF8/t12p7/W5nccUvb/VzOf2xsj1a5kfWtdi3O8lj+fPcGdOxoeRK203j3lhzsJdy3wfGbk+5z3u6DmT1zfencsPZrX9ely68XEpDh2ztxk7n+vcN2bffrXNaua9nTHztXEdvY1fr2fUvrr78/FsdPSx+fjWavRe5/eReO57TrFvLOc3su9jU8zj8OvVzPs9Dq1fy3zuN9e1GPd7mYU7vY9+5gYXzL7FAc3aTx/+Sm9gLfPad3f/uT7nPe7oOa/vG+/OpdFrru/DWFf0ra7R+7gUh47Z24ydz3XuG7Nvv9pmNfPezpj52riO3sav1zNqX0P783FtVPSx+fjWavTd404893Mbjznm3Eb0dRzer48pxzTn16uZz+0TN8eNt9K8t5tH9HvpOy7vjw9j478Wn6yx0YQ7Jk6N0ScOfa67DmnASe0oo3/ppZemX5byvfTdqPvod+3atWyQQ9iMX/a6u+zfwCUjUht8NypJ9OS9tXwYqzXGIcnQ6Go0YIN3xOjRTegGMoKMqj8aNuZuFD5Gj85a6WwIxwbviNGjudAKZAQZGH3DS1mteAVndTlqg3fE6FfH2xbRF2S0OtFKsL4mfCp6dNZKZ0M4NnhHjB7NhVYgI8igoqeir9JAKy2NwbHBO2L0eFvoCDKCjKokV4L1NeFT0aOzVjobwrHBO2L0aC60AhlBxtyMXrdX6jdj9WMj3W/G9t1Hr2PyH41WxwfO5ta6Dd4Ro9/c53uN+QwZayRs8I+BjbkbhW+j15ekMHo010pziWODd8To0VnoAzKCjEETX802XYP3a63F6NHZajRUs40N3hGjR3OhJ8gIMjB6Poyt0kArLY3BscE7YvR4W+gIMoKMqiRXgvU14VPRo7NWOhvCscE7YvRoLrQCGUEGRk9FX6WBVloag2ODd8To8bbQEWQEGVVJrgTra8KnokdnrXQ2hGODd8To0VxoBTKCDIyeir5KA620NAbHBu+I0eNtoSPICDKqklwJ1teET0WPzlrpbAjHBu+I0aO50ApkBBkYPRV9lQZaaWkMjg3eEaPH20JHkBFkVCW5EqyvCZ+KHp210tkQjg3eEaNHc6EVyAgyMHoq+ioNtNLSGBwbvCNGj7eFjiAjyKhKciVYXxM+FT06a6WzIRwbvCNGj+ZCK5ARZGD0VPRVGmilpTE4NnhHjB5vCx1BRpBRleRKsL4mfCp6dNZKZ0M4NnhHjB7NhVYgI8jA6KnoqzTQSktjcGzwjhg93hY6gowgoyrJlWB9TfhU9Oislc6GcGzwjhg9mgutQEaQgdFT0VdpoJWWxuDY4B0xerwtdAQZQUZVkivB+prwqejRWSudDeHY4B0xejQXWoGMIAOjp6Kv0kArLY3BscE7YvR4W+gIMoKMqiRXgvU14VPRo7NWOhvCscE7YvRoLrQCGUEGRk9FX6WBVloag2ODd8To8bbQEWQEGVVJrgTra8KnokdnrXQ2hGODd8To0VxoBTKCDIyeir5KA620NAbHBu+I0eNtoSPICDKqklwJ1teET0WPzlrpbAjHBu+I0aM5a+X/AazCghZCmnYoAAAAAElFTkSuQmCC;" vertex="1" parent="1">
          <mxGeometry x="341.65999999999997" y="335" width="249.78" height="150" as="geometry" />
        </mxCell>
        <mxCell id="HamWP4uttsAGSkK_IS_m-23" value="" style="shape=image;verticalLabelPosition=bottom;labelBackgroundColor=#ffffff;verticalAlign=top;aspect=fixed;imageAspect=0;image=data:image/png,iVBORw0KGgoAAAANSUhEUgAAAXoAAADjCAYAAACLvt+vAAAgAElEQVR4Ae2dbYxdZbXH95kWGTTSAW6iItMi/eBVIEosWJUoIZrrxdjy1tKhpdOifjBXciMx94uJIiEiEkou8YP1SkQFFMQPGjShtmJ8iRGJVqMxsZ3OOdMX2pnTt+lQkFbXzdqd/+maPeesmTNnnXk5z//Dznr223P2+u3/+p9n9tl7T5ZlmURNpVJJipP2vWjRIunp6ZHVq1dLf3+/rF+/XjZs2CB9fX3S29sr3d3d+THovvZY0Jddxnbc+eo0llY/2t62bZtUq1WpVCoyNDSUT9oul8v5pO3R0VHZsmXLBN11Ghfmw5rJIkUAY7ZR+6fRU2iROmvUF42eOmukDS7niJ6juUANzGVB0ehp9HOpv3n+2XHisCN5tDV5jujjGM9zMc3plyaNnjpjfTTUQMMVTRctzN1GGn0cX4rYZ0mj9/lQP0nziUveGjzaNPo4vixUnyWN3udD/STNJy55mLuNNPo4vixUnyWN3udD/STNJy55a/Bo0+jj+LJQfZY0ep8P9ZM0n7jkYe420ujj+LJQfZY0ep8P9ZM0n7jkrcGjTaOP48tC9VnS6H0+1E/SfOKSh7nbSKOP48tC9VnS6H0+1E/SfOKStwaPNo0+ji8L1WdJo/f5UD9J84lLHuZuI40+ji8L1WdJo/f5UD9J84lL3ho82jT6OL4sVJ8ljd7nQ/0kzScueZi7jTT6OL4sVJ8ljd7nQ/0kzScueWvwaNPo4/iyUH2WNHqfD/WTNJ+45GHuNtLo4/iyUH2WNHqfD/WTNJ+45K3Bo02jj+PLQvVZ0uh9PtRP0nzikoe520ijj+PLQvVZ0uh9PtRP0nzikrcGjzaNPo4vC9VnSaP3+VA/SfOJSx7mbiONPo4vC9VnSaP3+VA/SfOJS94aPNo0+ji+LFSfJY3e50P9JM0nLnmYu400+ji+LFSfJY3e50P9JM0nLnlr8GjT6OP4slB9ljR6nw/1kzSfuORh7jbS6OP4slB9ljR6nw/1kzSfuOStwaNNo4/jy0L1WdLofT7UT9J84pKHudtIo4/jy0L1WdLofT7UT9J84pK3Bo82jT6OLwvVZ0mj9/lQP0nziUse5m4jjT6OLwvVZ0mj9/lQP0nziUveGjzaNPo4vixUnyWN3udD/STNJy55mLuNNPo4vixUnyWN3udD/STNJy55a/Bo0+jj+LJQfZY0ep8P9ZM0n7jkYe420ujj+LJQfZY0ep8P9ZM0n7jkrcGjTaOP48tC9VnS6H0+1E/SfOKSh7nbSKOP48tC9VnS6H0+1E/SfOKStwaPNo0+ji8L1WdJo/f5UD9J84lLHuZuI40+ji8L1WdJo/f5UD9J84lL3ho82jT6OL4sVJ8ljd7nQ/0kzScueZi7jTT6OL4sVJ8ljd7nQ/0kzScueWvwaNPo4/iyUH2WNHqfD/WTNJ+45GHuNtLo4/iyUH2WNHqfD/WTNJ+45K3Bo02jj+PLQvVZ0uh9PtRP0nzikoe520ijj+PLQvVZ0uh9PtRP0nzikrcGjzaNPo4vC9VnSaP3+VA/SfOJSx7mbiONPo4vC9VnSaP3+VA/SfOJS94aPNo0+ji+LFSfJY3e50P9JM0nLnmYu400+ji+LFSfJY3e50P9JM0nLnlr8GjT6OP4slB9ljR6nw/1kzSfuORh7jbS6OP4slB9ljR6nw/1kzSfuOStwaNNo4/jy0L1WdLofT7UT9J84pKHudtIo4/jy0L1WdLofT7UT9J84pK3Bo82jT6OLwvVZ0mj9/lQP0nziUse5m4jjT6OLwvVZ0mj9/lQP0nziUveGjzaNPo4vixUnyWN3udD/STNJy55mLuNNPo4vixUnyWN3udD/STNJy55a/Bo0+jj+LJQfZY0ep8P9ZM0n7jkYe420ujj+LJQfZY0ep8P9ZM0n7jkrcGjTaOP48tC9VnS6H0+1E/SfOKSh7nbSKOP48tC9VnS6H0+1E/SfOKStwaPNo0+ji8L1WdJo/f5UD9J84lLHuZuI40+ji8L1WdJo/f5UD9J84lL3ho82jT6OL4sVJ8ljd7nQ/0kzScueZi7jTT6OL4sVJ8ljd7nQ/0kzScueWvwaNPo4/iyUH2WNHqfD/WTNJ+45GHuNtLo4/iyUH2WNHqfD/WTNJ+45K3Bo02jj+PLQvVZ0uh9PtRP0nzikoe520ijj+PLQvVZ0uh9PtRP0nzikrcGjzaNPo4vC9VnSaP3+VA/SfOJSx7mbiONPo4vC9VnSaP3+VA/SfOJS94aPNo0+ji+LFSfJY3e50P9JM0nLnmYu400+ji+LFSfJY3e50P9JM0nLnlr8GjT6OP4slB9ljR6nw/1kzSfuORh7jbS6OP4slB9ljR6nw/1kzSfuOStwaNNo4/jy0L1WdLofT7UT9J84pKHudtIo4/jy0L1WVqjz0ol+cmOHXK4WpVKpSJDQ0P5pO1yuZxPlXJZRl95RR7culXI1mdLPgueT1wC1uDRptHH8WWx+Sxh9KUsk49kmex69lk54Bh9ef9+GRsYkP/7+MdlUeb3Tfbks8A1EHcCYe420ujj+C5wobV91AyjX1YqyaksE/nwh2VQjX58NK+jejuiHzx+XF6+8055Jcvk/TT6tp8f6ndOvSDuw63Bo02jj+PLQvFZwuiXl0oiWSanVqyQsmf0o6MytmZNvu31NHoafWdrwC+eZswF5m4jjT6ObzPnIsVtYfSXlUryTzX6lSunNvq+vtzor+vsIqeJ8/zGGZE1eLRp9HF8UzTvZnKm0VNrzeglsW3jxAFzt1FhLlq0SHp6emT16tXS398v69evlw0bNkhfX5/09vZKd3d3PuJAoeIEoB/MM8adq05kCf1wRE+ddKK+W8wpThQwZhv14Gj0cYxbPNkd/Sc8jZ46Y3001EDDFU2bgjV4tGn0cXwpYp8ljd7nQ/0kzScueZi7jTT6OL4sVJ8ljd7nQ/0kzScueWvwaNPo4/iyUH2WNHqfD/WTNJ+45GHuNtLo4/iyUH2WNHqfD/WTNJ+45K3Bo02jj+PLQvVZ0uh9PtRP0nzikoe520ijj+PLQvVZ0uh9PtRP0nzikrcGjzaNPo4vC9VnSaP3+VA/SfOJSx7mbiONPo4vC9VnSaP3+VA/SfOJS94aPNo0+ji+LFSfJY3e50P9JM0nLnmYu400+ji+LFSfJY3e50P9JM0nLnlr8GjT6OP4slB9ljR6nw/1kzSfuORh7jbS6OP4slB9ljR6nw/1kzSfuOStwaNNo4/jy0L1WdLofT7UT9J84pKHudtIo4/jy0L1WdLofT7UT9J84pK3Bo82jT6OLwvVZ0mj9/lQP0nziUse5m4jjT6OLwvVZ0mj9/lQP0nziUveGjzaNPo4vixUnyWN3udD/STNJy55mLuNNPo4vixUnyWN3udD/STNJy55a/Bo0+jj+LJQfZY0ep8P9ZM0n7jkYe6IEJb+z9glS5bwn4NncazBlvEsUxr9WRbUBVkUNBAHBAaPiA+i0ccxBlPGyUxp9JOZUCdkMq6BOBAweESIjEYfxxhMGSczpdFPZkKdkMm4BuJAwOARITI1+p6eHl664aUbgSbaEWn0cbXcjvPDPuf0/LT+4TD2RnHx4sU0epp8W01eTYRG33ot04w7lmFriTUyd7ucRt8aYxbf9PjR6KfHiXpKklNrSVtDb9Sm0bfGmIU5PX40+ulxop6S5NR60o0MHoXnXaO/5JJL5Nxzz83/rMf2ECL6xTxj6+eqkxlCP5eVSvLPLJNTK1dKuVqVytCQDI1PlUpFyuVyPg2OjspYX59Ilsl1vLTW9ktrnay9BZBb6+YBQ64XFQCMftWqVdLf3y/r16+XDRs2yO233y40+tb5LwCRzYqJ0OipJdZCQw00XNF0cRaNHtA9o+/t7ZXu7m6O6DmibFpv0BcijT6ulsGUsWOYxiUyU6M/77zzaPQ0eho9NdCyBvjF1NDPG65oGvp0jH7jxo21Szd9fX2ydOlSodHHnYOUhc4RPXWUsv6nyD1OHDMx+re97W3y+te/niN6juaaHlgUhU2jj6vlIlvOL3i2cQl4Rn/BBRfkT8YWR/SXXXaZvOENb6DR0+hp9NRAyxrgF1JDP2+4omno0UavJw2jNJ7AuPPUqSyhFd5eSa10qsZnnFfRnFuZ7+rqEkzoRw9M77rREf3NN98sOqLX2yrvuOMOWbt2rWBEj+01ah92nu3SJB5ZqSScDAOMhru65N9KJTmdZXL62mtl4LXXZODoUdlz9KhUjh/P4+CxY6LTbhE50d+f30e/gjwn6Yl1N7nuFiqTbMbfECisaUa9hVLvo1ej13vo1ej1fvqLL76Yo/ZpMrTn6h1ZJv9ZKnEaZ/DRLJMburrko11dcmdXV/7A1Om3v10Off/7MvLd78qhb39bDn7rW3L48cfz+YOPPSYv/fCH8up11+VG/z+lknyUPHM9/ccM9Gi1yfY8/Ivq8ssvl1amd77znaKT9tGofeWVV8o111wjt9xyS27uMHk1+g9+8INy1VVXTdgf/aBf9N3KcXbKvu+4/HL52LveJdVzzskNSp/q5EQG0Rp4ZPly+fcrr2zJGzql5johjwyPhrcz7t27VwYHB+Xuu++WW2+9Nb90o5dv9CnZF154Qfbv3y/79u2rPaaux6L76NTO41qofe8fHpYjTz4ph7/0JU7jDKr33CNH7r1XjnzlK3Ls7rvzL7/Ty5bJkQcekGNf/rIcvvfeCZNue/ihh+Qf73lPvu3xzZul+sAD5Kk877tPRv72Nxk6cID1Z16fsVD9Qo87g6G2O+r7RdTo9bq8juT1Hno1+hdffLFm9PYY1Ph1ssvYPvPlt3doSAYPH5bBEyc4jTPYrdffR0dlz+nTsvcvf8nN+9X3v18GRKR88qSUx8byac+JE3kcHBubcI3+pZ/+NJ8n0zOaquzfz9obH2x2gu/M2oh+9+7d8pnPfCY3er1Gv27duvw6vY7oFSS+LfWlUzrZebQZz76ciywmslAN5S8sO3RIDvzmN2eM/uqr85ea6SADvLQNjampn1i3Lt/20FNPSfnYsdp22J5xImfyWJg8Moi+nVHFsWvXLvnsZz8rt912W/5jLEb0avQQT16o428WxPHYwsQyxjNfhuRwlkNNQyMjsu9Xvzpr9CMjMjR+6VC1ZPWkRj82bvQHn3pKBvXOnPGBBuNZtmSx8FnM2ohejV4v3ajR64+xRaPHqB6iqhWuGd1jGePCHFW087xBN5WREdlrjH5weHiC0et2OA5r9Ieefpoj+g65Ho3zy3jWJzL9kbTdkxaXGv1dd90la9asyc1ejX7Tpk3yu9/97syf3HhH+PjxYPTV7mNj/+0//7PBuHbpZnj47KWbFStk6MiR/H30egyqKY0DAwNn3kk/NlYb0b/0ve/JQLXa9lqYDRb8jM7QdOR5nLUfY/UavRq9/hirI3pco//9738/4UdXfAtr4WKUjzbjXtEfYnXSkas+AMTpDAO9vq6XXva8+qrs+9Ofzly6Wbmy9sAUOOk25ePH89G7PjA1unFjvu3BZ5+VPSLkqZrS3yr0Rghz9xtrb/xGiAX6A202PDws7Z5GRkbkwIED+aUbHdHrXTd6e6U+PLVz506pVqv5ZI9D99HJLmN7/FwdPy6HfvELOfT445zGGbz0ne/kLA4+/bRUH344N+/X9IGpZ56R4SefzNcNP/HE2fjEE/LSj34kr4w/MHXk85/PH6Ai08fl0JNPyvC+fTJ8+DDrbxb8cTZ8LduxY4e0e3r++eflueeek09/+tP5pRsd0avRq+H/4Ac/EF3/85//XLZv355P7T6ehdz/9l//Wp5/4gl57aKLcjOLflCG/fHhK9XAzs2bZdtvf9t2b1jItbiQjj2bjXc32P8wpaN4NXqd9DbL4muKZ+N4FvRndHXlL5v7SJbJXZwmMPjvUknuKpXk3q4u+Ze+60YfmLr/fjmqD1Ldc49Uv/AFGb3vPjmmD0t98YtS/epXaw9M/S9Z1lj+V5bJEn0NQqlz3vWyoGs+4DzMyrtuFPL5558vN954Y+1dN2r4+oPspZdeWvvHI3xHRhPvyOBLuCa+hEuNSb8Eu7rkwkWLzvxz8A98QAb+9S/Rh6P0QSl9oGro5EmpvPyyDIyOyi4RGdu0Kf/L6CrynMyT77xp+g2+89bDIr/p8OZK+/ZJTRxvr7zppptyo8fbK/VWy3pvr4w8JvaVxqisVmClkuA1xadXrpQ9w8MyOP6QlP6giLu59E4wNf6xvr7c6K8bN3rqJQ29pHaeQ0b0Ck0LrR48GH1PT0/t7ZVq9HrZRiOMHvvXCtb0Z5ex3cSoP7ERGXQIoz+1cmX+ZGzF3B+uBg+zH7RGnxgr1lFyddR6wiiwmRj98uXL+R+maDIhfyJDhzT61muaXwQdx7D1hFBgntHbfyVoR/Q0+tb5syjPMIQOafTUFGtikgYmLWh6dIUCq2f0umzx4sX5f5havXp17Ro9L920zp1insgQOqTRT+RCnZBHyDV6CIlGT0FBC3MRafTU31zoboF8Zpw4ikYPALjrhiP6ONZgy3iWKY3+LAvqgiwKGogDMhOjLz4wZQ8O/dllbMedr05jSaOnNjpN04H5xIgDpmwjDrI4otdXH+g1en1gikYfwx+sU440emopZf1PkXvr4rDmXmzrhxdfgWCN3j4Zi0LFAaMvzDO2fq46mSH0wx9jqZNO1vkMc2tdFDDkelEPyjP6pUuX1l6BgEJFIugP84ytn6tOZgj90Oipk07W+QxzixMFjBkRB+QZfW9vr3R3d9eerMU+Gov92HVsx523TmFJo6cmOkXLbcgjThwwZkQcLI0+jjGYMk5mSqOfzIQ6IZNxDcSBwEvNikavD0zZd93Ya/Qc0cfxT72oafTUUuo14OQfIw6Yu0YYPj6UI/oYxuDJWJ8njb4+F+qFXNr+ZKyKDEavD0z19/fn/1kKt1dyRE8RRhkRjZ5aitJSB/YTJw47qkebRh/HtwPF1/R7lTwGNHpqzdNH4uvixAFzt1HhckQfxzhxsbpfDDR66oz10VADDVe4RVUPqDV4tGn0cXzrMeeys3xp9GdZUBdkUdBAHBCYu436YRzRxzEunLymv4w7eX8aPXXWyfpuMbc4cViDR1sPjkYfx7jFk93RXww0euqM9dFQAw1XNG0KMHcbafRxfClinyWN3udD/STNJy55a/Bo0+jj+LJQfZY0ep8P9ZM0n7jkYe420ujj+LJQfZY0ep8P9ZM0n7jkrcGjTaOP48tC9VnS6H0+1E/SfOKSh7nbSKOP48tC9VnS6H0+1E/SfOKStwaPNo0+ji8L1WdJo/f5UD9J84lLHuZuI40+ji8L1WdJo/f5UD9J84lL3ho82jT6OL4sVJ8ljd7nQ/0kzScueZi7jTT6OL4sVJ8ljd7nQ/0kzScueWvwaNPo4/iyUH2WNHqfD/WTNJ+45GHuNtLo4/iyUH2WNHqfD/WTNJ+45K3Bo02jj+PLQvVZ0uh9PtRP0nzikoe520ijj+PLQvVZ0uh9PtRP0nzikrcGjzaNPo4vC9VnSaP3+VA/SfOJSx7mbiONPo4vC9VnSaP3+VA/SfOJS94aPNo0+ji+LFSfJY3e50P9JM0nLnmYu400+ji+LFSfJYx+eakkkmVyasUKKVerUhkakqHxqVKpSLlczqfB0VEZW7s23/b6zO+b7MlngWsg7gRag0ebRh/Hd4ELrel/ZNNsvjD6ZaWSnM4ykeuvl8GpjH7TJvlHlskHaPRtPz/Nnk9uH+odcZ3B3G3Uk8V/JRjHmOJvzBJG35VlckOWycCPfyz71egrlboj+vL+/TL297/LozfcIItp9DT6ztZA48Jp1lSswaNNo4/j2+z5SG17GH2ed6kkP9mxQw47Rl8pl2X0lVfkq1u30uQ62+R4fiPNAOZuo/bPET3NPlJnjfqyRq/tbdu2SdUz+kpFRkdHZcuWLTQCGn2nayDOhKzBo02jj+PbyOC4/AxjGj21xlpoqIGGK5r+hoO520ijj+NLEfssafQ+H+onaT5xyVuDR5tGH8eXheqzpNH7fKifpPnEJQ9zt5FGH8eXheqzpNH7fKifpPnEJW8NHm0afRxfFqrPkkbv86F+kuYTlzzM3UYafRxfFqrPkkbv86F+kuYTl7w1eLRp9HF8Wag+Sxq9z4f6SZpPXPIwdxtp9HF8Wag+Sxq9z4f6SZpPXPLW4NGm0cfxZaH6LGn0Ph/qJ2k+ccnD3G2k0cfxZaH6LGn0Ph/qJ2k+cclbg0ebRh/Hl4Xqs6TR+3yon6T5xCUPc7eRRh/Hl4Xqs6TR+3yon6T5xCVvDR5tGn0cXxaqz5JG7/OhfpLmE5c8zN1GGn0cXxaqz5JG7/OhfpLmE5e8NXi0afRxfFmoPksavc+H+kmaT1zyMHcbafRxfFmoPksavc+H+kmaT1zy1uDRptHH8WWh+ixp9D4f6idpPnHJw9xtpNHH8WWh+ixp9D4f6idpPnHJW4NHm0Yfx5eF6rOk0ft8qJ+k+cQlD3O3kUYfx5eF6rOk0ft8qJ+k+cQlbw0ebRp9HF8Wqs+SRu/zoX6S5hOXPMzdRhp9HF8Wqs+SRu/zoX6S5hOXvDV4tGn0cXxZqD5LGr3Ph/pJmk9M8jD2YrRGv2rVKtm4caOsX79eNmzYIH19fdLb2yvd3d2i29lCxXxxGcUac746kaPVira3bdsm1WpVKpWKDA0N5ZO2y+VyPml7dHRUtmzZkuuvE5kwJ9bLuAZiQGhh1Zv0QxYtWiQ9PT1Co49hzeKtz5FGX58L9UIuWaQIaPQUVKSemu2LRk/9NauZhLaPEweNPo5lQgIMu2xCo6f+WDcNNdBwRdMFSKOPY0nBNs+SRt88M+osGWZxidLo41iyAJtnSaNvnhl1lgyz2ERh9iogFB5/jI1lzOKszxN6g/Z41019TtRPklxaT7po7rbgVFRq9EuWLOFdN1nrrFmk9RlaDdLo6zOidpLm0nryWmRdXV0Nb6/Udeeff35u9P39/e599PZLoli8FGrr56rdDHHOinE2PhcaxGf97Gc/k5GRkfw+etxLj/voNep0/Pjx2n30OGbsr7HeMru+nW18thfb+fnse/7X27TPkSei6azTD/K20/XW6IsPTF1yySX5A1O2j+LBY11xOeaxnrH+swyzwQXnwkb9XJ230bbrrZvpetsX2jM1ej2GmUz6ucWp2I9db9fZ5Wjb9fXa2E5jvfVcNrPz2IncslaTmkpkut67dEOjT0OMGG2r3qCZYoQWi8sx763HNhrR7nSjBw/GNGqolfPcstF7H67FrdPixYsbPhmrRn/uuefWilP7Q6F6fXPd/BI3zrU19Nk8R1YzMPvZNvrZzFc/a66Zz3a+/LyZ13zbjN6KsFmjtyfUFrBdzvbMT3onsrM6aWT0uC6v77pBu941+k7kw5zSrpdZMfpzzjlHLrjgAlm9evWkl5rVG9GrKFGsFOjCFOhsj+xh9FY3enul/TEW5k6jX5iaohfM/Ly1bPS2sOyJwIhel+mI3jN6fXul3VfbjfrFdlivEcsYZy6EVthNdQ7suULbfh6WtRrRp/aj+puJ0bd6DK3urzl4fSDHelH3q7ecy+amLuYT95CXmtVLyI7ocOkGI/rbb789f03xunXraq8prteHJ1yvGLhu8t0f7WZiz1/xvBU/W7ctLmt1XvtUzanW0Jdeoz98+HD+SuI9e/bUXlesI3sd1euri+u9priYC/qzy9HGusiIvjUW+7Xriu3itpyf/TqYt8yLYpnJvDV13R/zmrTOY0R/4403ir2PXo3e3nWD/eodg66zU71tuGzuRi7z4dzoMajWVAeqPYzo1dBxuWbv3r0T2mr0Dz/8cL499TN3+iH79rIPGdFP9S2mJ1GfjL3ppptk06ZNtev0+g9I3vKWt0wYhU3VF9dzlDJdDfzyl7+Ul19+WY4dOyZHjhyR4eFhOXToUD7K15H+wYMH5dSpU/K1r31t0sh5up/B7ajHBaGB9773vdKu6ZprrpGrr7467//aa6+V2267Te64447ak7Fq9B/60Ifkfe97X76Nbm+PReeLy+x6ttt37qLYrly5UmZjgk40quY03n///fLoo4/KN7/5TfnGN74hX//612Xr1q0Tpscee0w+97nPybvf/e5ZOc4IFlHnhv3M//qJOkfZnXfeKdHT5s2bRSf0izb+haCavf4rQTV+fVLWbodtdVmxH2zHGH/O5jtTaKFR1EuCNgfd7uabb87v9NKolw11wjL9vQjttWvXyic+8YkJ+9u+2E5Pb512zjM136kmNWVvmmp//fFVp3rb2XXFz6i3PZdNfb46kVFRG8V5zVn/B7FO+LFfBxT4CxJMdD2WWe1hPWOa+ur0856hGNodFWTR7PUzUbDt/nz2f8b0OpWD6gh6Uq1pW01d/2rUH/21rRHzaOtoHubfqWyYV2drfzrnN1OhR05r1qwRnWyfOq+FpZOavRaWFqYWpC047Fvc3/bFduz56hSeqhk1cZ2gI718o5dkPvWpT8knP/nJfNI25tHWy4fUHHXVKbVQL4/szW9+c37ny0yj3jWD6U1vepPopH1dfPHF8ta3vjW/fVLbl156aX7XjV5LVaNXw9cCu+KKK/J76XUbTNqf9mEnfAaiXYc21hX3t8vRxj4asay4H7bx1tt19fZvZj0+z0a7f6Pl2Ka4XudxTIjYBvPFONX64vaYt/vpMpxLaKC3tzc/z4hLly6VZcuWTZh02Uwn7Qv76i27Oj3zzDPy17/+VXbu3Cl//OMf5Q9/+IO8+OKL8uc//zlfpnHXrl35j7b6QB/2n4toWeDzwUpzUY46KVfliwncbcQ5wTaYxzaYn8563Qfb19vfrsd2sxXt8SAXezyN1mM5IvbFcddbjm2wTiOW2eitt+vq7W/X2z7RbrTeLkcb+2jUZdnrXve6/KVirUR9xYGd0Jc+8arTeeedJxdddFH+Yxjuo8ef1/oF8MY3vi4yxZEAAAMcSURBVDE/BmyvLznTPuyky+yEz2i0TaPl6KPRerscbeyjEcsQ7bpW16NPG23/jZZjm+J6nccxIWIbzBfjVOuL22Me+yHqcjvh3LYrqsYw6efq5+gDU9VqtfaglN5Dr5PeV69RH5zSd9088sgj+e2V7Tq2Vvq1DLUNvl7EdnZfu30z63U/bI8+MD/X0R6PHkvxeBqtx3JE7Iv96y3HNlinEcts9NbbdfX2t+ttn2g3Wm+Xo419NOqyll+BgIdTcC+pzuuDK/YBCP0SuPDCC2tGr39eq9HrpKMWLYT58MCNPWa24x/ggEbaFaEh7V9fjf3cc8/l77qBqcPgd+/enT80pQ9R6f30Dz30UO0+ej3v9visDuxytLEe8zON6Kf4+bY/uw3b8frsZKYhRo8CsxGC1Qijv+WWW/LLNXpdHj8g6J+l+q2j2+n+gD0dgWMb7MM4v8WP84Wo5wvtViPOvWoN7e3bt8vRo0dFX38wODhYe2OlGr+a/MDAgJw8eXLCA1PFY0JfxeU4XqzH/Ewj+mn0Odqv3Ubbtt5s7RS34/z8rovZOD8ZBDLTaAXX6IC1+PBSM710oyavP8beeuut+bVUNfp6Qm7Un12O47bL2E5P2KoDHcXruYeW8M/B8V4bvOMGRq/xxIkTtRE9dZOeblI55yFGPxUs+1IzNXn9IVajjuz1hye9dIPinKqv4noaPYsTmigavY7o9Rq9XrLB+25wGUdH+LpMX4/w4IMPzlh/+GxG6nA+ayDkXTdIEKarpg3j1qgF2NPTkz+lqAaPH2LV8PVuA/0RDX0gog8bsc5Gu57tdN87Uk8TavT13kdv30uvP8bipWbQT72+dJ1djjb2YUxXewvi3EOwM41eAWifuh5Gv2rVqtoLzfTSTTNGP9Pj435zN9Ka7QLAuYYmm/1XgtgP/TQTZzvXVo61mby47dzVTyT70BE9Dgwje51XQXpGX7x0g4JBX5i3Ef3aZWzP7YgK58vGeufEri+2620/3WW2L91H54sjer1Ug+v0GNXbfyU43c9qx3b2+Bu1630utq23jsvmtibmE///B2w8D/TmoHBDAAAAAElFTkSuQmCC;" vertex="1" parent="1">
          <mxGeometry x="342.5" y="500" width="248.11" height="149" as="geometry" />
        </mxCell>
        <mxCell id="HamWP4uttsAGSkK_IS_m-24" value="" style="shape=image;verticalLabelPosition=bottom;labelBackgroundColor=#ffffff;verticalAlign=top;aspect=fixed;imageAspect=0;image=data:image/png,iVBORw0KGgoAAAANSUhEUgAAAXoAAADjCAYAAACLvt+vAAAgAElEQVR4Aey9eZxlRXk/XHfvbXpmWGdfGHZQEzd2RXyNGoVB1unZQdG8vySvP5OIIrgLAwMzICLBLTFGA0bjlpgIDJu7IUaNgsx0971nuff2OsMwEDQB/b6fb9V57j19uN19p+/p6dt964/6PGetU/XUU996zlNPPaWUUogjJRIJ1ErMO5VKYcGCBVi7di22bNmCDRs2YOPGjejp6cHy5cvR1tamyyDvS3mi53Ld0njabC7ykTLDeiWTSdx3330YHR2F67rwPA++78NxnEri9QMHDmDnzp1adsP8kHzC1+yxlbtZLAPxNJ6AcpSSMRbo4+HxLBayWJSJeuovAG2B3spcPfLSQs/EIxBRgJdzMtICfTw8biGhnPLAYIHeyprtJzVloObFg+5oAuxRaoE+Hv5a4a2Pjxbo6+OTlaeW41M8FY4CvJxboI+Hv7Zj1sdHC/T18cnKU8vxKZ4KC7BHqQX6ePhrO2Z9fLRAXx+frDy1HJ/iqXAU4OXcAn08/LUdsz4+WqCvj09WnlqOT/FUWIA9Si3Qx8Nf2zHr46MF+vr4ZOWp5fgUT4WjAC/nFujj4a/tmPXx0QJ9fXyy8tRyfIqnwgLsUWqBPh7+2o5ZHx8t0NfHJytPLceneCocBXg5t0AfD39tx6yPjxbo6+OTlaeW41M8FRZgj1IL9PHw13bM+vhogb4+Pll5ajk+xVPhKMDLuQX6ePhrO2Z9fLRAXx+frDy1HJ/iqbAAe5RaoI+Hv7Zj1sdHC/T18cnKU8vxKZ4KRwFezi3Qx8Nf2zHr46MF+vr4ZOWp5fgUT4UF2KPUAn08/LUdsz4+WqCvj09WnlqOT/FUOArwcm6BPh7+2o5ZHx8t0NfHJytPLceneCoswB6lFujj4a/tmPXx0QJ9fXyy8tRyfIqnwlGAl3ML9PHw13bM+vhogb4+Pll5ajk+xVNhAfYotUAfD39tx6yPjxbo6+OTlaeW41M8FY4CvJxboI+Hv7Zj1sdHC/T18cnKU8vxKZ4KC7BHqQX6ePhrO2Z9fLRAXx+frDy1HJ/iqXAU4OXcAn08/LUdsz4+WqCvj09WnlqOT/FUWIA9Si3Qx8Nf2zHr46MF+vr4ZOWp5fgUT4WjAC/nFujj4a/tmPXx0QJ9fXyy8tRyfIqnwgLsUWqBPh7+2o5ZHx8t0NfHJytPLceneCocBXg5t0AfD39tx6yPjxbo6+OTlaeW41M8FRZgj1IL9PHw13bM+vhogb4+Pll5ajk+xVPhKMDLuQX6ePhrO2Z9fLRAXx+frDy1HJ/iqbAAe5RaoI+Hv7Zj1sdHC/T18cnKU8vxKZ4KRwFezi3Qx8Nf2zHr46MF+vr4ZOWp5fgUT4UF2KPUAn08/LUdsz4+WqCvj09WnlqOT/FUOArwcm6BPh7+2o5ZHx8t0NfHJytPLceneCoswB6lFujj4a/tmPXx0QJ9fXyy8tRyfIqnwlGAl3ML9PHw13bM+vhogb4+Pll5ajk+xVNhAfYotUAfD39tx6yPjxbo6+OTlaeW41M8FY4CvJxboI+Hv7Zj1sdHC/T18cnKU8vxKZ4KC7BHqQX6ePhrO2Z9fLRAXx+frDy1HJ/iqXAU4OXcAn08/LUdsz4+WqCvj09WnlqOT/FUWIA9Si3Qx8Nf2zHr46MF+vr4ZOWp5fgUT4WjAC/nFujj4a/tmPXx0QJ9fXyy8tRyfIqnwgLsUWqBPh7+2o5ZHx8t0NfHJytPLceneCocBXg5t0AfD39tx6yPjxbo6+OTlaeW41M8FRZgj1IL9PHw13bM+vhogb4+Pll5ajk+xVPhKMDLuQX6ePhrO2Z9fLRAXx+frDy1HJ/iqbAAe5RaoI+Hv7Zj1sdHC/T18cnKU8vxKZ4KRwFezi3Qx8Nf2zHr46MF+vr4ZOWp5fgUT4UF2KPUAn08/LUdsz4+WqCvj09WnlqOT/FUOArwcm6BPh7+2o5ZHx8t0NfHJytPLceneCoswB6lFujj4a/tmPXx0QJ9fXyy8tRyfIqnwlGAl3ML9PHw13bM+vhogb4+Pll5ajk+xVNhAfYotUAfD39tx6yPjxbo6+OTlaeW41M8FY4CvJxboI+Hv7Zj1sdHC/T18cnKU8vxKZ4KC7BHqQX6ePhrO2Z9fLRAXx+frDy1HJ/iqXAU4OXcAn08/LUdsz4+WqCvj09WnlqOT/FUWIA9Si3Qx8Nf2zHr46MF+vr4ZOWp5fgUT4WjAC/nFujj4a/tmPXx0QJ9fXyy8tRyfIqnwgLsUWqBPh7+2o5ZHx8t0NfHJytPLceneCocBXg5t0AfD39tx6yPjxbo6+OTlaeW41M8FRZgj1IL9PHw13bM+vhogb4+Pll5ajk+xVPhKMDLuQX6ePhrO2Z9fLRAXx+frDy1HJ/iqbAAe5RaoI+Hv7Zj1sdHC/T18cnKU8vxKZ4KRwFezi3Qx8Nf2zHr46MF+vr4ZOWp5fgUT4UF2KPUAn2j/E1CKaZG82mN9wXoU0mF++/7DkZHR+G6LjzPg+/7cAsOHCdInosDBw5g586dkPcMr5NIJFLj8L3aFgnbJlYuZ48MxAMAUYCXcwv0k/A3oaCYAoFJqCQ0gFSup6FU2jwz5jllnps9glapo9Q1FhrwxPCNAJ3QvMokFR64758xOjoM1/XheUUUvRL8vKfBvuDmkfcLOHBgP27deQsSlXzSSKgMVCJbg+9JqATbw7RRStk2iKUNW12GD039qyDTSKMJsEcp80ylUliwYAHWrl2LLVu2YMOGDdi4cSN6enqwfPlytLW1aRCQd6Uc0XO5PqdoBdBNO7wQ6DNQKme0Swv0LxwsAp6kVBJMlBkOnAbov1kT6H2t1efheP0a6HfuvAUqKQMugTyDhAqAnp2wwvcA6BP8lkLaAv0L2+PQgJb97sHz2QJ9Mwwc1OINyFOjZJJ2aYdSTEaTFCoabDOUvRnKIECfVAmjNKQV7t31bewdGYXnUKM3phuCvEl5eG4BTz91ADtuvQUqpQKwp2kmjaTK6IEjGwb0RBIqyb+rtAX6inyKnFraDP1ggjLE00CifUcpP2w1+sl5XAV6apNMNA8QdKjRM4lt2ABR9f7keU/Q+HNGMyI/CPYa6KmBpxX+bZex0YeBnjb6CtA7xkZ/8607q0AfaPbMh1q7AL3moQX6OSMvrdAnInWMByiiAC/n/JgF+vF5bAA+rM3nQkBvbMD6mYSq2JFNAxLwBfzHzz/S2HOvoxLUK6YV8igFRUBOZfGv9z+IkdF9ejLWdz2UPR+uk9eJE7J5z8W+Z57B9tt2IpEM7O2SHwGfWmv4PCmmG/5dtTDPbd1nY/vHI7AC7FHKDmGBfnweV4FewJ7avDHdjLknQB8CNQv0ISAOANl4y6ShUu341/sf0kDvOS4I9MUQ0FOz5yTtk08/i5tvvQ3JhNIaPHmuwV1s9mF+628Q7INBNnzPgt9sBL9WKvP4IHQwWksU4OXcAv3E/BUwH4/XBvQJ/IE3jgBKAGzjvdeq19MqhRRNX4lO3HvvI3hyeB+KTgGe58AruqC3DbX6gT4Hg/0+nt7/G+zccTvSgalGT8pSu+fAGphuaL5hMl428icldOL2bdV2sPVuOrmIp0AC7FHKBrca/fg8rmiQUQAPtEUD9GLOCUwGAvJWo3yBRkagJ8+SiXbcd+9DeHJk9IVAX3BQ7vcw0F/Cf+//DW7VQM/3qn8IAvT0rBE7fdWdUkCedPy2tfcsb5pIBuJpjCjAy7kF+nr5G3jVELxpNpCkgSSNdJJgHzErJGmPrjf/OfqcDHpJ41aZTGWQoGdMOoN/u3+XXjBF7xrfc3QqFAoouA76XQ95z8dTB57VGj1NPukkJ71DfAryrNjp5Vua5wL2oefD79rjsby0/JhpfsQjqALsUWqBvh7+EjQC7xoB+IBqfgYeOPQE4aRhOktQo6tf2Bunnu/MwWdoZqFrZPDnmEjRhm4GRLpXjowOGLNNAPZmEtbHE56LPb6Dp556Eh+/bWcwsW1cW5MqhaSeeA0NuALyBCw5Zhto0J+DfLXAPNPAHPf34xHSKMDLuXRAu2BqPD4T5KnNc1FUzgAHQT4AEGrxNEekA5dLrXEmFNJtnRG3y/Hyn9vXOYlKHmWT5FFCL5hKp3iu8NCuf8K+kSJ8Lw/XLcD1Pb1C1nF97PZcvTL2uWeG8Zk7tiOTE//4nOY1XTU1r4O24DdouqmYbypgP7f5q3lgQT9u0J2J/OIRVAH2KLVAPxl/BegDjV4ARANNUoMX7cRpxUU6xhsnGSzakeX4rdwZGdOGIEwtnOCcSSh0K4VXpBT8f/4yflMuwPO5CjYAereMglNEn+Ni1C0AT/wXbrj0Qv2OWXRVXceQTldDTxDg2Q4vAHoLgjMBWvabBy93kwFRffejAC/nFugn5h9BSgO1ALymBH8zAUtw6Uwl0K5SyKoksgmzmMq4VgZap+TRqpQ8SyZB+3xOKbxSKdy94ng8fnEP0LcHhWLemG8cF65TQr5QRMHxgP488v/vO/H3x5+KVyeyWKDBXOLcBGaZwIQm2nylrVqV17bes3WQmRiI6tUWBdij1AL9xPwl0I8Be63JU3PnEnyFtrRCLmlSG+3zolUSgGyn0zxIZYLQBMkU2pXC6Urhx0cdg5FXvwl44tcoUKune6UG+rIGeppvCPQHejZj16KVeKNSOFJ72NCElkEqE2jzAdCbduLAWrXLV9rNtoOVxeaXgXgAIwrwcm6Bfnz+EijGaIraVs+4NtTaFWhr7uhSaOtS6OxWaGtXaM+Z63olpwX76iCZYhCypAb6VyuFHy5agtLZrwaeeEwDvetzgZQLzx1APl/WXjco9GPfpRfiB2tW4Q1KYT6BPmGAXrdNAPL0gKqEnOAkLVN4gG7+Tm6B2LbR+EB0MBqjAPtYavJOpRI1olduRk/PBixfvhJtbR2m4yTMZJp8V/Iy54E21XCDST6ms8q3GqEEBfpd016cShkglglBTgpWEicJgyT32xJGW+e5fjd4XmvxGYW8/wl4AzfBLW1DwbsZJf9OdOQISArpYCKykbLP9nfJcxPILKPt9DTdnEGNfslijLzmNUajL/ko+J6ejPW9QRSckgH6fB+e3XQ57l20AK9TCodp000SiWT2BbZ4trHR5q1GP9tlpkXLHxfQG7Bjp9MpofSycnpFMB1++EKcf/6bsPXKK7CuZwM2bLwCPeu3YOWKY9GW64JijJKQ33Iy0FbFq8L4kTOqoFnYkkkHk3AB2Gmw1YAbDBZi8yYQ0P0ueC6lckiqtiDMQONgT02PgJtOK7TlFOZ1KnS2K3S3KczPKSzMKhw9T2FhTuGIToX57QqD3scwVLwJg+42jDrbMeRtR7Fo0oB/I4a8GzHk3oKS81mkM2YAYH3bMgpe/qM4rFOhQyltjzYAFE8bzsYOQP93LpDiatiMSiETAP2Pjjwce8+hRp9HvzeIvF/WYE/bPM02/W4RyDs4sP5yPLhscVWjDwBd5ElcKaPnhleNy89s5Lkt86zsb40W2gi7XklIUI8APTtIOpXAkUceifPPPx9brtiMzVu3aJC/7PKNWLpsFbIZavTUpIJFQ/SiCJah0585nZbY4GkdtIqaPjugDAKpRBKZVFavwBUhTOl3jPal/aypcacS+hec5pJsRoHg2UjKpY223pkLQLjwWXiFnSh7N2PI34ERfyeGvR0YcG7ECIG8/yMY8q/XYN/dbkCfA8D8NoUOgnenQneHOe/OKXQQ5DUfWG7zN7B3+Gb9zLyUQldSoS3VWB0aqX8zvMs/ISbOX+i/oJTCK5TCgysTKL7xRUD/j+AWf4biwH/AL/0MnveE9sDpE6Dv2YBdy5doG/1CbaM3/YH8roK5CT9RvcZ7lHsL9NLfLBV5aVraSMEo6AacjZmFWj016pRJ1LLSXUglutDZcRjWXnAxrrhyEy5fdxGuuOIKXHZ5D1asWolcW4fe6CGV5AYkzC9cJoJ1RkcjVGljPzWLi9JIpfi7bkDQ/FaHFrPoBUj0Sw8GCVk5mTTAmGs39u95gfZNDbxWGnBvwrjJ24YB72MouTei5H5aA3NXTqE9GAC0OSatkAoSgZzXCJCkYwYbDjwZhRwTB6BU8CcS/I1wkKJ23+t8BPMWKOiBIle7zLXqMRevse06OxQ65yl0dSt0BgPlKzsV7n65wr+vzwKDd2J49FPYP/pJ7B38Isqln6Dg9qHXdfVk7P71FujH9rdw37PHc4g3jTam0WzEnm5+pcUXmb7hOQ32CxcswoVrL8GmTRuwfsNl2LRxPTZt2oTly5cilyOAG08TvSqRKxO5SCiVMFo7tdqUQoKASaDMKLS1KaTphRKyifM4lzUAynsdwTN8R9u/CcD0YmlTcEu3oTy4DTSVDHrbx000tYyXqH13dSl0EGzaFXIsSygKol6lmVHVWOfanERvDrrwyapWoxXKpCz/jMxiKQ5wSSSynPwLVmiy/PMU9hSux2D5VgwXd45b7onqNFfuaTNX+Sb4/kfhlD6IwZGPYd/Q9Xj+F38B/PidwPffid/3boPnfgyjxfdg0L0BJe8h9Ht96C36QMGDBfpG+799f5YMBo01FH9ndQo0ea1BU4sObO7UQglchx+2AG9+0xtx5dYrsHH9BmzqWY/163qwYvlSdLSbOC6VvPSkWBptSqEro9CZUZjXprCwW6G7U2FehwK1uXA6vFuh5FyPYv5GDPq3YsC/BSV3OwaLN2O4eAsGPZOGyzvgu3dqbTo6SBzsOTV1xfplDZgneR4AdTYb/JlwbkCbpIIFUak2E7qAnhspzjlkkVZZZFRCu07qOQ0ObALu3KNUJwP4yZxCMhsMXJFB7mDLP9uf5yR3jpPZHMgzSv/xdCQVzlQK31mdxp4/OhkoPIjhoW/iv0e2Y6R4E0oD38WeYh92+0Wg4FqgH/P33BgWzBLAi1gMWqbOjVW0As6BuaYK9NnK5Cq18YULOnHZpRfjys1bsHXTJbjyra/F1q0vxuqVCkcsMODd2aZAe3dn1tin53FyM6sw4NyuJy/d/vdhwP8QhsvXo+zegKHSLSj6N8F1btD3F3QqLOgw5oyFXca8QROHToFphpp3R1aB3i5cgMTyT1lACeqMN0OTksQ9IbAH5pZqvmmkU3SbFNOT+GjT7FRd8arLEgwUFc1ea/4ZpJK50FxFUgftMpp/A+VvpO5N8K6eCFcZZPnXmEnpvzZ63RDov79oEYbodfP4f6FYfBhPDu7EgHMDiqXvYbfXjyeKRcC1Gn1VRltXjlqEB400MIHSmFy4mTIX+WhNXpsmOqASbRr06PWyYP48rD3/AmzZsB5btpyF3vIHUNzXg6ef+iM8PfyySjowcjqe3nc2ntz3Kjz55FqUB96h7bB0KSRAt9M0E7goalt2YIqhds2/B2qp1PCY2mniCa5lc1XzDW3o/FsgKNBk0khDpxJ0xUvr+CjZdPXPhHZ4Arcs0deglMwFz6aQS3DJfvB9PWCETDzBXxLvU8PXS/u15p9BLkHQD0w5LxhQGqtLI3yYiXfJ05zqQFrvqWsGbYYUPjvwox969XnA7icwOPBjPLX3Dj3XMlT6MfIFF7/26HVTwJMbrI1+JtrOfvOQ99VGPihAL94w4iLJ8LkG6Kl10qRx5OFH4II3r8Xbr9iMrVvPxJZ3KJT3bcCTe1+LZ0Zeid/sO0unZ/aeiQN7z8Le0TMxuvePUR64CvPnG8AmwBPA+cuuATyY5MzQlBEc00bPAUDAnu9oEwUnOANXRdrvuYKyUaDXQE73Sr2KVTTz5AvD3epYLGYPUgI8V7cSkOgKqAcaAjdBm6YfvRjHgBbv8Rtt6YyOdZNV6cpfCE04+h0OEg0OVrP1fQI9tfmsatebeXNQrGj0Ry7B6KtfBzz2K5TKP8STI7eh7NyI4fKjcApF7PZLgONY002Lys5slfkGyt0YUBCIdKrYlen6SMAX0DdAv3D+Alx4wVq8ddMmbNmwFldufg22bnopTlytcDhXfqaNyYamG2ruTPRgoSmGtvah8jYMFD+KsncT/MKNKGm/81tQ9HagXNyBAe8G7XaoTTYdxhzEyVKabRYEPu30POnqVGjrMBO5lbLrOhhwJXiY6/VRevvoIGPaW4ix0MPmmSBePM05kkLauo62GHgtVSZcJYplxHWPsdJZLgF/42VkJnQPprwHW79mfp68ILDTBJcMontyAKXp5gdHL8boea8DnvgVioPfw/7Rm7WMlEqPotcpotfxgXweB9b3WPdKC/atoCzFAPR6wlEmEBPGNk93xpBroAD9lZs3YUvPBmzt2YpNl23C6iWr0Znt0iYg7XETeK1Q6+VEW0c6AH1OwBK4OxQWdCl0BZ4upJyoJaAP+pyM/RCGS9tQdj+KoeINKBeux0jxFgy5OzHESdrydjjuJyCmHJpYRPs/WMp3tcmIZhoZ6AjG6bbAs8bY4iueM/rvJoF0Ohky6QQDQ2CbN3Z8Xgt8tEOLyDhYaG8ihkGgmyg9kEKmqoMt/2x/nmsI6D/fTh5kzZ9bZ1LhLKVw78ocdr/uFKDvfpSHv46nRjmPc6P2p+/3TARLmm4s0DfW/xvQMFsBXJupjo01dEUrDjTWimZKgGIi8KVSWLigGxeuPV9Pxm7uoVa/ERvX9WD58uXItRMYg5W1AdBTW6OrooAZfc5pgtGeFnSdDDwuGPSL18U3nZ44FW8MPpcxNn2uXNXPEBi4wtT7rPkb8G7Wfwn8U6iVwp49tY7px93RrtBGkxHNRGKOkQU1Yk8nFTAPqLG/M3gZNXNz39j7afM3f0ralJPl3IdZfTu/S8Ht+xDKznaU3R16cVatcrfENf8GDA18BJ7/fhTcD6FU3IZ9pRvw+19cDfz4auB77wJ6P4JykRP474Pn0BXzRzpyZSHPoGYODtgFU80ERrYs0/d3FRfQm0VSY4CeJhyVHAP0Wzdv0e6VnJRd33M5lq1YjkwH3TGNVkzwk8GDx0bLp4abQzJhJjvNJhO0V9MuHphFNFgGi7e03Txbc/s9/uJTG87ljA88TTnaxBP8LUSPB/ztGD/diIHiNowM3Aav/1Pa1MSBhSs0OWnMAai9w2j9nEfIBm6RMp/A+3pSmIObzDFw/iFhEsup+cldk5IJ/b7T/yEc0a100ougxil3tB5z8Zxtx6BvDPjWzUVknQoL2xRO61D4wssUfrS+DSjvwP7Rj2Pf6CcxMHA3SgM/g1f0dbwb9HsW6KcPWCxoNxdvGwN6s5JVPG8ylRAFsjrWAH0mCGp2PrZs2YQNG3r0gqmeHmr0QVCzAOh1eIOAQWbVK23lSWSS7dqrh8cMecB79D7RHiga7BN6paz5lUzqQUEvwuJCq+A5avT6PgGUk5nBJC4Bd6qJoE7zAV1B/fzfoFT4uPbbLxc+hiFvG4YKN2DE3a5DIdDHv+jchAXdwSIrmqE4h8ColIxOOd/MIWhQ7lRobzfzGxwEuTKWE8tF/wZtuqJJi6YL/r1Mteyz/T0OjomMSeSNbocg1s29q9vhnv+HQOF+DAw8gnL5+3D9R9HvP4Y+L4/eggf0FizQNxcY2cFh+tqjEaCnHdksBKJrpYC7odVIlDTdLFhwGNaufQu2bNmC9Rt7sHHTOvT0XK6Bvj0n0StNCAVjn07q/AjqqQQHEi4uylTAXPzM9SSnmDkCJulY4pzk1AuNROM3fwo6WBoHFYk33oDXikyOclcjbS/m4i6GJQji1VC71MHMOgxdSGDvUHoRl1u4EUXvZh3YjBPJfukjcMofge/fpNcGlP0b4Hu365AIBGT5Sxgc2KHdTWkmqk7MNtKGs/hdtl3aTHiTF/w7mqcUXqUUvnfUIgyey6BmP4fj74Hn9uuY9Hm/H/1lF33FMuAWLdBPH7BY0G4u3jbS0Qn0gbkkmIyshDAIBR1jKIMF84/G2vPXYfOWt2Ldxg3YsGkd1m24RIdAaGtjNMnATKOMXZ9gzwGD8Ww08CcTlc0g0tmUdtnU5h7a8pMp7W8u8wG8ru/pjaKN+YjbwolJSP8J6NW3Jk6OXJ8KlVg7NLMwX5kU1PME1DIZtoBAHVCthTPOfGDT57msB9DrADjnEEwQcy5hyL1TB0QbLd2s7fKee6ueSOZfivH2qZq6plL+2fyOUQgoH2m9ZyyBnlE96Uf/gyOPNmGKe3+l49H7bhFlt4RCoYB+38WvXUf70e+3XjcWkJsLkKerPRoBer5rvEPE62RyoH/bWKBfsRhtbVxsRXMMY9xUg5QR6AXk9cQuBxN68gTePMm0CYlMsBoD8iFPFe3qKROjgeZP7Y8+7DJx2gjYGVNRyOsm+ENg1E3hDZ/hfAM1c/lWRi80ExdOXpfnq/MMjDnPlcGMbsnEvwEOJBmGQdBmqID3Qb0k71ahFaBPmOB2dK0k0OuNR446CoOvehWw51foLRbguj4GvEE4eVeHK37CcwEnDwv0jfZ/+75gQJPTeBqq4ieeSIAgJ9EsWfmK6eaCi7FlyxVYv3GDDm5mTDdLQY2ez0lgNGFY9Fxr6gT1Bswt+jsRYJTvHUpKMK79PQPeupyBOyX/DrQtPvhrELNV7ffHy3cuXzeDJNcliEb/w0WLjelmz+MolHx4ngffZSrqlbG9XDCVL1igH1cO57K8tGTd4qm0gHKUEowM0C/A2rVrtY1+wwYC/SaYydjl9QO9FcpxBod42nA2DhzVAZMrlFNjgL78mlfrEAhO0Qe3EjT7xvoa6Ps9C/Szsb1tmafc16f84hjQiQK8nFugj4e/VsBr89ECfW2+WHmxfInIQDwMEWCP0vGAfuPGjVajt38oY5SFiGDWda8eoDf7xY7V6M0OU9Z0MxWe23fiwcxDzMd4Ch0FeDlnZWqZbizQx8P3QywsdYHvoSyTBXorR4dS3mbxt+IRFAH2KCVjLNDHw+NZLGTTNkDUA/TWRm/lz/admMwHUYCXcwv0tpNNZyezQG/lazrlaw7lHY+gCLBHaRToN2/eDHrdWNNNPHyfQ82orkcAACAASURBVII4Ja3fAr2Vo1bvA3XWvzFBiQJ7rXOuSl24cOEY98p6gF788eusyJSAwubdWPvPNP8OFujFj966V87udp9puZuF32+swWsBe/SaBfrGeDwLheqQDboHC/SeY/3orTy1ZH9srNJRUK91PtXJWKvRN9Y2rdChLdBbGWkFOY+hjo0LSi1wl2ssYBjoD8ZGb4G+8baJQUAOmXY+lbLWA/TWj97K0VRka469E48QCLBHKZllgT4eHs8xwYtlALFAb2XL9ou6ZKCuhybtlFGAl3ML9PHw1wpzbT7WA/TWj74276xMtRRf4qmsAHuUWqCPh7+2U9bmowX62nyx8mL5EpGBeBgSBXg5t0A/Rf4Gm6fIJiqRRpv0D+tQP0/ArYJuuM7J2mGlpX4NLtirfnds9MofLF6M8rnnArsfh1NydfRK1/dAr5tCwUXVvXIDdi1bhjcohYVKgTHtx/LOhI0es5tXpezVkNJj34nm0bznVf7VDv9dvW9CQcseC9XrzVu32dom01Tu+BpKwJ00XFhOqs6fPx8XXHCBDlNMH/r169froGYrVqwYE6ZY3qNLJo+jecn9uUOrHYibj7ADaXDnvrZ6kxVuDG7Aknw09xKaJriDlgamah6mIx7KcwPwBEIDhvLtoB56O0cpZyBrBErZ+JzHlU1X5N36KHkl32UePO5SCqcphe8vW4bSea8FGI++mNf7xHJS1vdLcApF5BmmuOBg7+XrsGvFSrxeKSwIA30i2NksGMA4AHCjmkrbsPwNlH2qdY7zvTH8021i5ErLWbBZjvCXW3mabUO5U5vhtWnv+PBj7vTppuRJPIUKg3z4mI2Xy+XQ3d2NCy+8sLIilnvHMh79Mcccg87OTg1YBHcBeGn0VgP6VBjsCfQaEE0H1LtssUNqgIlq0AKmh5oa+akCgtnMvTIAEeg1SITKK3UI6lF5tjJoMc/J60GgIvgyCWh1KoXTlcJDRy1F6bzXaaDvL/Yj7xdAjZ4Lpgp5Hzp6Zb+DpzdvxXcWL8frAo0+F2xpacrMfYdN3i8A+hfUYfLyTrWe0/Ueecb9jkm1nIlc8Vqwixvv6fshoJdBtXovHgwx9bR5TRMf4mFsGNzDxyw0vW4I9BdddBG2bt2qtXkB+lWrVqGjw2wOzmfDwC6axTRVfMxfx8x/gwCZRlonozFJRyI1vEhCpRJa0+c2gxqU2Cl14mbsskvXoaIJcPBhm3GrRJ0Ut3dMIa24vV8Gsml85T6fUwlwNygmvXXklMtttp1kHuQPQYs7TJ2jFH645Hj457we2L0b+aKjd5cqOx7KThFO3scerwg4LoZ7NuOBFWtwvkriqGArwra02fBeJbLgVpSsHzc1YWLdwvUN76x26PnfaDubtpNtOlVa/soUVJayJn9lMvDKYBYPZsx8n2upesRXWXYASdKIBHl2wsMPP1ybbiT0gZhv1qxZoweBKKhH85H85hrV2pLWpNiJqkAvmio3vDYaq7mvEsZ8Q5AnqJFS25wpKuWUMrC84cRyhZPcY9kbLb/k2x58g9o87eznKoVHjz4GQ+e8Efj1Hvieg8F8P4b7+jDa149yXz8c1wf6HTy5bhO+u3wN3qIUViiF+aFy5fRgZPifVUnkVLJStzjKLzybScpvSxuSn2wf0oqJKvhzCSsd+p780ei/sPgwZK7176apjwBqHJRgLUnyY0UJ9ocddhguueQSbaPnNoK00V922WVYvXo12tvb9QCRyVCTMlqKmHCi+Um+c4HqDcMDTdiYZaraIjcvl47HzphRWaRUDrl0Z2XLPNqUD1MKhyuFI2eIsgxSDpZhsVI4OiiPlI3lk2NqzbxPytRouZk38zkiyPcYpfTE6s+6D8ez57wW6M/j2cES/rdcwO+K/UDRwf+WPBwYHAC8En6/YSt+dPQSXKwUTlAKi4Kykkq5WT8OAKyDlJ91kHrOJP8b4R/fZZJ6kIes45EJDmoKbamc/ivjXwzlURLlVpt6tGmxqtzNhT45V+ugpnvEIeMI9ARx7hnLlbHh1bHLli3T9wXgpTx8J3pN7s0lWtHotaZOrd38HvM67d7UtjIqgWyiTZtBaNqZpxROouaazeD1qSTemFR4Y2IGaCKJNyTTQTLfv0ApMLFMb0gpvInlSvAZPstzhTcrQ3msyz7F8jPPN2ayeF0iidcnFM5PK6xVClcrhcLCI/HUyS8BPvsZuP/wBXhf+jxKX/wbDH/p8yh/6e9Q+NIXgb/9PJ4++1V4/MijcJ1SWqt/c0rh9WmFNzKxDjol8fpkBq9P5vAmlcGbVRpvVslKPWaM/1PkW6W8iST+WKXw5kTGyE8iiT9SKZyZyGnw518L/2TSOhlZrEzAjplMtxp902PSKaecgkbSySefDKZoHnKd9MUvfjHOOussPRkrG4NTo6dmf+aZZ+JlL3sZXvSiF1XykHejec7F85NPPQknnnoKjnvRS3Dci/4Ap570Bzj15JfgxFNfhBNedApOOOXFOOXUP8RJJ/0hTjzhVLz05BNx6UtOxfaTT8WXjz8FXzvmOHxz9Wp8c9WaQ06/tWoNvr3CJB6zHN9atQrfWr1Cp39ZtQLfXrlaP/OtVavxzdWrQonnoTSF8n9j9Rp8/bjjcM/qFfj68avwzeNX4pvLF+PfVyyD39YNv2shHl6xDP+4ZhW+fMzx+PIxJ+KfjjkOXztmNb62aiW+t3I5iofPx+62NH6wbCW+sfIYfOPYNfjascfgq8ccg28csxr/smoVvr1yVVCHNZrPvM66sK6VOkyh/DPVbuHv/vPq1fj6qmX4Cnl43HH49poX4641p+L/e9krcM6Jx+FlJ5yEF5/0Irz4pJdouTzl5Jfg5FNeghNO/QOccCqPq/12LvbPuVIn5Xkepjs5joP+/n781V/9FS6//HKsW7dOe99wQvanP/2p/v7AwAAKhQJc14Xv+xU63WWb6fzpCVLwi+grlpH3B+A7A/DdMvJFc63gDcAtjqCf170BDNH08OtfAl+6G7+57sN4/poP4PfXXAe897pDTvlNXH0d8B7z7eff9z48f+3VeP7adwPXXA28973m/tUfAN5jyvn7970Xz+v0Pl1elr2R8j9/3bV47gPX4dlr3o3nrrsa+PB1wNvfhuL8I/H0MScA770av//A+/Hc+z+M317zITz3vg/gd9deC1x7DXDte/H8H74I+YXd+N8NW4APXo//ec81+O17r8HvPvgh/M817w3qcTXwnvfpxDo+dy3L/j4gSI2UfybaTcqLa96L31/zV/j9tX+J/33/e/Dba6/B81d/EE9+7Bbg5z/Fvv7HMejk9US255YhyfXKKPhMRe3JNNN9yH5/cgxXBNXpTATuYrGogfsv/uIvNNDTrZIaPT1wHn30UX2/Vhn4Xq3rc+taSft2e76hRc9H0XdN4rFXQqk0gIJTRKk8qPk4UOjH73wPcF3AJZ3B5PmA4wClMuCROsBgHvB7Ab8AOGWgMATkB4DyXqBQAHwXKPmAF0f5HYC8YF78/mAZ2LULvzhiEZ4+89VA727zraI845nneV7IA5evx48XLQX+/kuAttuzzLTl83kH0Hb9XsAtGH6z7N4M8jvOttY86wO8PYDfH7QXeTiAUT8P1+vTi80YQsIrGpwoey7KXgFlvw/FYh983yhmc6tPTi8mzgSvpl2jJ1iXSiXs2bMHf/7nf46LL75Ya/PU6gn4BHqpeHRk5vXotbl27rv07Y4kz0HJNYkdi8Cfd4wfODscO16+6KFQIi2ir1ScEcpvF0ol9BZ9/NorYvfAAB4r9eKx8uPoHX4MhZHH4JR+Abf4M/jlX6BQehTO0L+jt/xjFEZ+iSf8X6Kv5Ey5/Px+v+tozbKfg2FxQA+Ezz30EH64aAmGz3k18MSv0Vfy0FssoD/wped7T5Q5ADnY37MZDy9fhX333INnPAdevhdeuYTdro/eUhFPDDjYM5A3/PY9nZfwO+8Hf14zxH8pRyPUGSqiv+xqWaI8PeHmscd3sMfdA3fQRV+ZdXcqmruWVS+PktcL3++FR54dAquA/cbkWvtEPFI0q0xnosmGWv3u3bvxl3/5l1qjpyZPWz1NNz/5yU/0fT7DctB8I2k6y9UsebtOHkymPJ5etcmVmzo5HvL5PjheP7xSHgWvVx8T9Pv6XfjFQeQ9H/0cCDz3kFPHK6DoFDDoD8BxBuGUBrGnvAd9Qz+FW34QxeLXsHfk7/Dk8J3Yv/c2jAzehNH9H8fwvk+hNHAPhka+D6f4+JTL7Xiudp3kX1C+UIRfHMJIeRi/ve9+fO/IozF41jnAY7/W8tXn9qPg5uE5lDPPhEAoOHi6ZwMeWLoYo//wRfy2XES5P49ScQiFwgAcfxj9vq95y/eYyGcuvmLdmWaC73G29x7HQZ/jw3FL2jRIt1OtTLh98Px+LXP9Xh79bhH9Tskkt4g+zzGDrDu9+NEs/XS2l+OQaPTUzHt7ezXQX3rppVqTp2vlFVdcgf/4j/+omG6iI9Lc1+gd+F5eJ9bd9YrG9ukNGHuoxyX7LtxiP9xiLxy/D+WSCwKb65Q1uNFOqrV73zvk1PUd+IU8uBCJcwsEjL5yL9yRn6Dk34OR0qdQ8m9D0d+GsvdhlIsfglP8KPzyzSh6t2Kw/BX4pZ9Pudwmdo2LksPVrkV47gD2De3FM9+5Dz9YuhSls84GntijTWPU5pnIZ66M5XwIHB8HejZg1/IlGPrSF/CbwRIGqHAUSnALw3CcYXCOhDzmilom00ae1nBZf4ZVmCn+N/7dIrzyEBx/EF6hrJPr+qY/enl4GuzzJk6QV4brDqHgDSHvD5k5JZpkGT/IavRNzwMl2vN0UY6EzJsa/Tvf+U6t0VObp42ebpai0ctz4XJQy8/n8xUNP3xvLhw7hX5jKsj36jr2ugXs9lzspqbo9MMp9MJ1elFw9qC/sAcOtf/efrh7XA1q/VzhWfDwhOPNCKU2SO12T6FXm5Z6C3ns9ntRKP8ATw7ehSH3FnjFb8Epfx9e+RG4A4+gd+AR9Je/iYHS7RgZ+BwK7qNTLj/rTk2eIF8s7tNaOCesn33wIe1R455zNrC7X4PS46U8flXqBXnM935dHAbcMkbXb8K9q1eh9I9fxEjR/D2xXr35EvLuMJ5w/KB8Pno1vw3PewuG5zPJ/zjanaEg9uRd9Pc6cPKuXkjGdqRsMvHvMV9w9eDo9BfBlC/4elDvZf90qn/gc6FPztU6TLtGTwDniE/A/tM//VNto5fJWAJ+WKMXDZ6UifZ9vivntehs1ia4YrPs5lFyqTVRMxR7uwfPDzR9t99MeJXMZKzXl8e+vIvn8pxM5IRmGfCLM0g5uZo3E5ecpHQKQPlHwOgdeO6JD5hj3wE8PtMPlD1g8N/x9BMfBvZ+Gig/OvXys+4ug5P5gDtoaLEEPPQgfnTk4Rg9mxp9H+AW8byfx3MeJ1XzOvSB5ptTxPM9G/HdJUuAu78EDHCSNZh4dViXYnXilt/yBg2f9THPyXc+M5P8b7D9nWBymbSfE9E+fud4eJp/MQUjl/yL4d8M/5wYQkL/2WhvMfNnM5v7YKuUXQ0PD2M60969ezE6OqrB+l3vepdeHUuAZ6Kt/pe//CVGRkZ0YjmGhoYqaTrL1Qx5jwwNY+/QIEaGB1EeHUV5ZB+Gh/ZhZGgUvMe0f+RJDA3ugz+4T98fHRkAii7w9a8Df/N54JN3And8ErhjBugn+d07gLvuAu78tEl3fAr4m+vxu7svBB79K+BzHzJlvP0TwCfuAO68E/i7jwL//i78/muXAp/9YAPlvxP4a36b5bgNuPPjwGfvBN7/PuS75uN/TjwFuO124M67gL9m+f7alPWuO4G7PmneO/ts9C1YCPzZ/wU++7fAHZ8A7uQ7nwQ+cTtwx63AJz8O6LqSx3ea40/wPr8raQb432i7s06fvB34a7bLHcDtdwB3/A3wxX/C737xX3h2dBhDI8MYGBnVGEFZ3T8wiH1DZQwPD2JoZHBasaMZ+uhcKYN64IEHMJ3pwQcfrOT/jne8Q4c9oMmGNnqC/T333IOHH34YDz30EMLPskzR8+ks50zl/eAuw/97H3wETA/uegQP3/8QHtz1EB54gPQR7Lr/Edz/8A+x6+Hv4aEH78OP7/4CPn3ea/DZY4/DPcefiK8cdyy+euzxM0CPxz+dcCLuPuY43H3MCbjnmJPwlWNPxpdOWojPnqmAH74TXzh5Ib56wqn4yrEn4qvHn4B/PPY4/N3JXcCjf4E7zlD40qnzp1zufzz+WNxz/PH4wnGr8Q8nrcGXT16Du49ZjoeXLcFgVzdKHd14YPlK3H3cCbj72JNwz5oT8eVjj8OXj1uDL65ZgV0rlsLp6oTf2Y0fLFuNb6w+QS+UIj+/ctwx+Mqxq/G1IH31WF4jj0362rHHgslcnyn+x/DdE4/H3WtW4+7j1uCrJ5yMu1eegk+c+FLc/Z734NEH7sODD9yPXQ8aGeXxI7vuxcO77sUD+vr9lb49U/3Hfrc+/FbTHduBS4MZzkDi0RPkGdBMKGPdhKNX8nmWiZRxbqa7fDOdv8S4UckUmBI6WmJKR01k5EQdEiGRQjLFaJApHcCM8Uj+MJ3Dm+YtwKWdXehpb8P6to5DTvlNpnXZDqxvn4+etm6sa+/C+gUKlx2ugF+9H+u7FXrau7CurVPTi3PtuHwB712HdUcr9Oj7Uyv/uo42XN7ZiYs62/GW9g6s656PDZ0duFYpeAsW4sCxx+O3227Cz3feip/fvBP/dctOPHbrx/HYrbfilzt24DfbbsBzp52BJ+YtwEdVBlfk2rGhfR4uy3Xg8lwbNrR3YmOuK0gd2Jgz9TX17tJ1nwm+x9XeLDvr15MzbbOuawEu6TwM5+bmYXUiDQaJY8ybapRRxrUJhc4OIpfOdB+y35883lDDQC/APB6zBegXLFigY93QpZJAL4HNWh7oCeahRKCvnBP8Q1EC2eHY8RiDhEG2GIxqiVJYPoNpZRD1kZTlYFAzRoE8Ka3w3C+vxapI2ZYqBT773z9/j34mev9g68L6M/G7kjdj6Ty28DD85qwzgb4+/J4+834JKPpAiZR29RLQ3w9cdAl+euTRWKcUjg3KLmVgPSStVkrXhedyf7ZT1oVB4KTtyEcGc2Nws+5QJEsdPZXKVzKUAjkdr9/b65OD76HkUSxBzSYqcC2gp8lGwhWHNx7hszJwCJ0ob96Td2Y/NQHNuHuPCWwWnGfSpoPxz4hRBRMJMCwvwZ4a10wn7ujExEBrpLpsCYWjOhWeKt6I7oQpI++xzDpMcVJhf+kmHNFuAKWROggfmD8HPwlT/JMlR2P0tecCj/1Kr+TkUv6hgkkD/X0YyBeAPbvx7MaNOh7Om4LIlKxHrfIQ+PgN3mMdw6nW87PlmkTmlPahIiGhi1MMXCYhi6NyqTfIMQH4Zn/fa4mgbPFUcjxAphDQdCMaPU02UwX6sEDJ98LXZvOx2UbQ7M40BuypRQVaPetsolkawGxXCR3h0tRbOt2hpYyyqTcPkbjkmQQSGYWODgXfuxGZtJEvDlK6nEml7w8M7NDPpBnqVr87tXITjCRWOqN8EmC58cjDSxejcO45emUsfd25uIruutplly6B9Krp78fQ5evwryuW4/8JtFjyl/zW0UMF6IJdlnhN2iK8I1Mj5ZdopTNFhXfkYzKlkGCdxTwjf5OkAdCLnJqd0IKtL6XtLW1mxVM6WmNUgDdK2QkE6LlnrJhsZOORejV605kaK2Mz5lHpaORTkOSaLm+os5G3vMb7JoQxd1iSwcHs5cldqsy1Q0M5b5BKpFHp+Mk0UmmFznaFsnczCOQsD3ec0vuOJlJIpRR8dzu6O1Tl/lTKLeBodnYyO0Dxj+EMpfDI0uXwX/s6YPceveCJKz4l9TlusJVgAQc2bsau5avxBpWobA4u/Cc1WwoaQDPnIbAfA36Hht9T4dN48qD5J6DOAVcSlQvuZMZ9m8eEzxZZ4w5ocjz3+mQz4kQMZYqnoaIAL+csYC2gJ+BTsxegl+eFakCrsWNVDBVuqlFXQEVAXqhc54S0mbCtAozhkWm3KtBLxzv0NJ2UbQO58UxaAzlBfLC4A1mtcXPnLAP0yUQW2ayCX7gRC+ep4P7UyqxlIRgIuWVhRqW1aehMAv2ipfBefR6wu7cC9PQHZ/A4vZyfm4PnHey/fD12LV6mNwfnJDcHCv59CP8re8eKtioDb8iU0QxtMJUyaKDnBvOhv8bKH0sE4KMavXxvrvXHOVyf6QV6ghJ3i1q4cGFl4xGuio1q9ALwQslwOSadww1Q0dIFXMJUAz1BRgBGqHROAaAZpGwfava6zVJJJKjRB6YbMc3wvgYHykNGoehsq2j0DbWtmBqCzTFos38V94xdtgxDr30t8Osn9KI7mmy4OIYL07RGz8Vd+TyeXr8RDy1bjjcGuyvRPi3lSeq8uXWj2b6x0gbyTbZF6PnZeiygTSp/aJX2qmjuZjCerXW05Y5RUMPAHD4m0HMrwQsvvFC7VQrQc4Us94zt6uoaA+oC7OE8WqGhwgAvx1LvimYvAC+Az/YTwDnUlIMxf/cDm7Yua1Jp0828Lmr0N1Vs9GE7PsF/qLQd89qN6aah8gd8oKxwNyTa6M9WCt9ftAilc18F/PpxEx3Uc/QKYwbs6mNQuADon+pZp4Oa/XEA9JyMrNipdd41gF74LH1HzmcbrcyvGFMMzTG1kpFFmUOJKB3CA0ubfdCPRysJg3L4mJ2fppvxNHq6V3Z2dlaAXoCNVPIJX5tzxxpMQmAddBgB+jA1dWeHC4HPTHewoPwsp95LNKGQySjM61AYKG5DOpiMlXqwDrw/4N2AbgH6Ruog/Av2NBWg/8HixSi/5tUG6BkzXYfTNeF2Ge+ml6uL8704sP5yPLhsMeh1Q9ON1uglzzBlGUPn4frMbpkM5Kky31Cd3JY6Cq3UM8SHyrVG2tC+eygGieYA+loC03JALx0oEHzpYGEqttIK5Tsz1VGkvEEZwkBPEA8DfbiMsQF95PvidUONXgP9uedWgd41URbpfcNgXIyhj3w/DqzvwYPLlmjTDV0zK0BPnur8g0GVikcocS6F5+F6zbrjMfUTwB9bpxfUUXhO8xXTbOdB65Q/nsYSUI5SCsJEGv2qVatesDJWhEfykvM5SaXjCBX7byCAAi4CLLSjVkB+po/DZdZ/YEaW6FJJs8yAf6P2qglrwjymjX7A24butsB0M9V6yPdJVRoZlaqYbn6waAnK556nbfQM68xAXJ5X1J43DKfcrydjC9i/fgPuX74MfxT44Yt7ZbXM9DxJBzwfC/ZN1RZx8HAMP2vgQvi+BfrZNsjVaNApjHICylEqQB/2ow/b6FeuXGmBvlYH0uBVBZaqN04toGcb8vohpuFyV+y9Crm00iA+4G+vAr0AkQC9e1MI6KdYbvm+zptAn9GLss5SCt9bvCwA+j0a4AnyBuhLOsTuHgJ9v4P96zfi/uUrXgj0FV5moBSTuE9Km8jk5AzwvVK2KfIt/L7wUKi+x3xrJHmGNKKQ1Hy+Vh72Wm3eTj9fajToFD4aBXg5rwfo29vba1Y+nMecF6RwJ5LjiKnAaPVjgV40/pmipl3MJB5NJyxjW0phfk5hyNuu3Sf5TFX7VcilFIadm7Ewp5ALLXg62Drob5NXAdDThVP86L+7eBmKrzlPbzyiN7H2zKYhea+EXqcIAfoDPRvx4NIVFa8bPRkbTEoan3W6hWaQUmatgAy4Mml5sGVutuer9TFrM2qVb0zfE9kUOgWsGJOffb8m9k0Djw490IdXxq5YsQLjAb0ENZuGSh8q5k76HelYuo7SecI0AHsD8mHANIAv788UNW1TBXqaPgj0BPEw0FfNTQL0NzUM9KxzxcSi6KufqgD9w0uWGKDf/YTeY5dulfSjN0Dvo5exbvIFGKBfpidjGeNF+9HT3KgTtXYBetZRtPm5Qw8a6DUwh5WNePBjLvfxJqlbPA0l2neUspLhBVPREAjLly9HW1tbTUCc60BPoAprhlogwiDP40DjCQO5uRbtbDzn84eQhsrK8jHoGoGDppv5bQqDXsh0E3qWNvxBd5t+Rvzsp15uwyP+MfCPgn70NN18d8nRKNHr5onHjVuleN1wV6QC9371dQgE2ui5laD40RuNvgrkYxZMhepQHWCkjQ4h32NrZ2N+qv5tSR2kTmHKe5JoxqrOW4iMWhrmV9Mdx1OgKMDLORu/XqDnO2FhsUBfbRsB+ip/pNPNIA0D32Q2enk2GZqMrbhXTrUOVUAWoBf3yu8tOdq4V4aAni6WEuumCvQ9GujfEARECwO94bWULfT3IPZpqVMFAOXZWUylTlEa1JF8NsnMWVTlsSqr9lpT8iKeQgmwRykbXYB+7dq1YJjisOkmrNHLuyIo0XO5PpfoCwE8nvY4JDwKg0EA9Pxu1esm0OiDvxJdJpmMpddNBeinXucq/xhPx2j0xr0yAPrdj8MpcVUst7R09OIpavRVr5uxQC8rY5mv4aGAdgjoWe/K/VY9Jl9ate6zst7xFFpAOUopDBbo4+FxU3asAOwJjFz9yjLWAnpjHjB8qLhXxgT0hi8E+pQ23RDof7goWDBVsdEboPccX5tuokBP003Fjz6wxUu+NFlUBxRpy9AAYAHPgn7zy4AIbmM0CvByzs5igb4x3hrAadI8LNBbkGt+kLNtFBeICLBHqQX6JgXouDrnLAB6xqN3/bEafZ9b1F43+9cb043V6Oe4nMYl77M3n3gaOArwcm6BPh7+xjUgx56PBXqrLc5e8GultosPiATcw9QCfXz8jR2k4+igswDonaL/Ao3e2ujnuFzGIdtzK4/4GjwM8HJsgT4+/s4WoOdkq4l1U/W6sZOxc1wO5hYozkVNPz4BFHAPUwv08fG32YGe7c4yWqCf421uQX02DgTxCGUY3MPHFujj4W9Tgjw7fMh0MxuAnlEsa/nR28nYOS6ndnCKp4HD4R9WiQAAIABJREFU4B4+tkAfD39nA9CLH73V6Od4m1vQtBp9GORFw7N+9HO444c0egF6u2BqDre3BfnZCPIsczxCGQV4ObcafTz8jaudYs9nFgC99aOf4zIYE4bF3jeaq1zxCIEAe5RaoI+Hv00rhBboZ6uGZ8vdXEA83e0RDxBFAV7OLdDHw18L9LX5GA4+ZmPd1OZR08pOawHtdAP5ZPnHIxwC7FFqgT4e/jZtZ50FGr1dMDXHZdAOGJOBPO/HIwRRgJdzC/Tx8Deudoo9nzDQ83iC6JWyaIqTtWVvm15UVd14RPhUK/ytRIoUKs9W49EzwmTtMMXcYaoE7jDleR48x0Wh4FZ2mNIbjyxbBsajn68UGKa4+pfA71S/KREsq/drlbVatth5HVNfteVqyTaKp9IC7FFKobJeN/HwuDk7qAFC7izFbQRZRrpXdnYolIrbkUrxmmysbYDRAP1NY4FeDxK8H+xcJJt7aOA1OxqZXY1kZyPzXbOvq8lXb2MY7DD1wyVHBRuP7IHjD8L1ynpz8JLrwckXAqDn5uAbsGvZCrxOJdDN3bF0SOJ0ZX1AFOhl6z0D9ua7zdkuc1nmbN2mIHPxMC0K8HLOAlmgj4fHU2jcen7pGnzGgB0BMDMh0Fd3JCLQF/2b9GBQ0egrQJ+DUhkoAn1l43DZ1ciAexV8eU7gZzIDDfd85VaCP1h8JMqvOUdvDm6AfgBcLFV0CigU+rGnWAIKAvTLNNBTo2/TG4OHgD4RfDP4cxGgr5ZhLretrVtz9rkptcuUXnoBOAiwR6kF+nj427QCF5hrKhp9sIMUY92UijcilWb9w0BtNiYZa7oxg4UBz04o1W406grQh000AT8D4FUJgrJ5nxo9twI8Iwr0RYJ8GdTmPbcfeacfu0sC9NUdpg5TCtyKUP5MzKrfpMlfvifmE35TpznevlJfS1+AeU3bJ2u3VTyCGgV4ObdAHw9/m12owkCfqRnUrGr7DptustTcA43c1JEafa4C9Lw2xjYugCtUbOgJhWSiCvTcM1ZvDr77CRT8otbmq0Dfi92+BxQKeHLDWKDn5uJjgD6Uv/7LkE4kQK/vt0YbN7sM2vJNKIcT3qx7FBNgj1Iy35pu4uFxcwqyaOsGaAnKubRCd5vCoHcLCORRoCbQD7g70J1TyCV4XzT6auwcrU3r6xk9EOg8BNxJAxu+5M3nCfQEappuHl6yBN555wEa6LnxCCdjHa3RO4Ve9Lse0F8ANx65f/kS/FFoMlbzWb4V/I0I7+V7psyBWUfA39K68UL4aekhw4Z4PhQFeDlnQ1qgj4fHzdcpCPIyUVoL6Lcjl1Sgtk+AlABoGuidWzE/APpUsCer3BcQN5q+sdkLwFaeIRBTtuRdDihJA/TcM/bhJSvgnvs6DfTcHLxQdOD6+QrQu64P9BHoN+L+5VWvG63NV0Ce+aer3wj9XZjvhgYoC/IW5JtbBuIBIQH2KLVAHw9/mw/kWS8CfUaDPctHoCWot6UUutsVBv1tNYGeXjkDAdC3Jcw7lcFAOosGck6yUqPnN5hoFw8GDK3tm0FG2/ap4acM0J+jFL539BoUX/XHGui9YgEeQd7Pw/GMjd5zSsAeDwfWbcWupavxJqVAG30Y6Dm4pFVap/BAxTKwLGP+RKTcllrAb04ZiAeIogAv5xbo4+FvMwI9gS4lQE/wSymkkwrtWYXuLoWB0gcqQE8gF5DWQO9/CPM7FdqyCvS8SQeArwFVTDka7Kk1E9CDAaUC9BwAAg8dPh946dDr5nSlcO/Sk7HnvLXAnj0g0PteXqe8348+pwCXQN9bxODGd+BbK0/SXjcLw0CvtXf65tcGej2wNWeHtkBr26WWDMQDRALsUWqBPh7+Ni/Qp5HhZCqBPq2QbVfo7FZYcKRCqfxOdGSrGrsG+mQCiazC4Mj/QffhCh3dCu3dCpk2pT10aGdPJrJGUCugTh4GZhIN/jwPA30aKpXQYE+vm1OVwuePeTF+ftkVQF8/XK8fvufo1O/lNdD73gCQL2HPn70bnznxJThNpTAvAPpEytje08mcHshovolq9Bbo565cN2Nfi6FM8TRYFODlnAW0Nvp4eBxDY9ca6ad8jeCXS2a1uSaZUkhkFIpDN8Mp/x+UB/8UxfL1yKYU2tIp/YwG+nQGKqvgl96HgcG3ozjwATjFHSgUb0c6p5Ai0KuULpN2zRwD9mE+GrNOVdNPmj8KpbBIKVySbMMzf/9lPO+5xmxDoPddOJ6rJ2ILThHP9rvAoz/Dpy64CIuVQlcyBRNqOYlUkn8L8g2aacRkZMrAc33Nao9Tlp9mk+c5Xp5w55n6sQB7lFqgnzpPZ4PgVQCPppecQnngJszrVujMKND+Tq8bTlxS6xcbeyan0J5UmJdS6EwqtGUUCuWbkKVmnzEASgAfo8W/APAJwsasklEZpFJ83rw7L6lwlFL4r29/E08PDeiNwbXXTdHXq2Mdx0O+4GMgXwD2DuOeW24ETT76r6Rie+dfShbaTz+Y8KX5SVKl3hboLdDPDhmIB4iiAC/nFujj4W+zgj4BL5MxIEsN3HOv16ENujImbkwqYSZMaf7IpLJ6wpSA2qZS2hWSC5Ta0wr+wG1IdxnzTSop5huCechkMwbsDdAz37RKak2cMse8+XdBE9Cue/8FI6MDcLyC1uSNi2URjuujzzHa/VP7R3DHJ3YGNn4zwcqByZiPCPaBWWoMyAdlmh0d3AKxbSfKQDxAJMAepRbo4+FvXO0Ubz5i4jBeMdmMwmBxBxZ00KRDj5WEnkSl5p1JBOaPYNI0q5Jai+5IKHRlFfr7PoNsTiHDPwA+Q+1cbzYegD1BntdJtczyutH6k8kAeJMJqIyx1at0Cg889CCGR4fgugUUHRc+49x4Lvo8B71uAfmih/3PHsANt9wIlUwikTFmKHre0D6vTTfMO/hu1VRTnfytlkfKZWm8Mmb5GRM/42FkFODlnIW0Nvp4eBxTg8eo4RFg00gl27QGTDNN2dmOw7oM0BsQTCIR2PEz6QAgU8YE0k53SNr1nc9rD5yOnHFvJKBWYuBUPGuqXjuGD+bbPE4zXw4ABHkGUeNkaiKDf/n2vRjZO6oXSgnQ97sG5PsLeb2Ianj/Puy84w4kcgR2etmYMmitPmm0+TFAr/8qWI/qANB87TJX5c3WqwFZi4d5AuxRyoJZoI+Hxw00cozgPrYuqUwAhpyYTSnMb1MY8q/XbpPi8siYMKlE1vjbB/FhktT4CfTtCiODfw1q9rSTMw8CPU0vxmzTDqUY/4YafOjbgWZf8b+n1p01gM/3c6oDj9z3XYyO7jM2eregAV+bcZw8vHw/yo6D3x54FjffdIv5Fj2Cgj8K5sGkvxny9Tdl4CAjKVQmed7SsW1l+dEM/IhHUKMAL+fsGBbo4+HxGKBrls6TUMjkDAhTo1/YQa3+I8gymBm16ww1cZptMkgquk2mkcxmtAbOiVeGMy4629CRMnFqxN9ea+kaTKlpE+zFC4YAW9Xu9eQoQT5IHECojXcmOnDfP9+P0eG9gY2+EEzKMgxCAX5/PwYLDn775DO4/ZbbkEikkEyndLkI9trNU5ueDOBXBhTNdwPydsHUHJbrZulf8ZUjnsYSYI9SC/Tx8LcpQT6s9SYTSAcxbga8bdqTRptTAs3baOTG3i7aMl0vGeVyuLhT2/S1Bk07ezIFRVrR6gmsfNdM7FYAVq9QDfjLZ3me4LwA3TTTuP/eXRgdHYXrunrTEd/34TiOTm7B0ZuQPP3UAdy6Y2cwH1BtK+YT5nlFu4+v443JP/wte1xtB8uL2HgRT0ZRgJdzNpTV6OPhcTMKvfGQYf2SesEUNfTB4s2VFbFVgBQt2GjIvE6g58TtcPEWfazrp71cggFB29oD7V1r9y8E+ihPBKA5QXvfffeNC/QEfA4ABw4cwM6dkwN99Dv2fO7K9Bxt23gaTIA9Ssk0C/Tx8LgZBZCAbcA8jVRWoaNToVy6UfvQcyOSCtAHGjfrYN7J6HAJjHLp5z+qwyZo7xna8PVEZ6BRV96TgSLwx6dmrTX+sby1QD+WH80oM7ZMM9JG8Xw0CvByzka1QB8Pj5u1g9AuTo2e2n1HB33pP47OtLG5JwSohVZMHzkN9Au7GPzMrKDV9dNAb1bGVuqrAb0K9GYi1AJ9hT8Vns5tObP1bah9G3q5YmcUYI9SNo4F+nh43MyCzslLhi/IMiY8XSYLn9EeNXrPWA3U9Hk3C6tMPZLa66bkfgjdHcaMYzR6A+AcPMwAQt4R5A2t7htrgb6Z5cGWren6fDwFigK8nLPBLdDHw+Pm7Dw0tSS0lwo9U7gQipuJDHi3obPdrHQ1JpYQ0AfaPVfSDpQ+jMPnG6DX9eO9YLMS42JpAN7Und47ZlK28mxEm6Xc8Z610c9lmbN1M/3hoPhwUA9XNPjohwTYo5TPWaCPh8dRns/8Of3WDfAyEBlXwpLSzXLEv03vMqUXPgXALguPNPDzDyCtUPI+jHkdDHxGjxnj3sj7fM/Y943JxtRVgD7Q8PWfwljeWqAfy4+ZlxFbniZpg3gaIgrwcs5KWqCPh8dNIjChwT4A+hRDBzA2fRLJZBpmB6kb9eKpCtCHfN1lEpX3hkrbtYslj/mu3CPIU6M3rpRVsK+eW9NN88nDXJXzOVGveCohwB6lFujj4W9TdupAU09kCfImrEEimdaaOhdNMRSCBnqGJo5o9QRyavGes0Nr9NywREesTCaQShlfeAv0c1h2Iia3ppTvuVXGeIQpCvByboE+Hv42ZUcgeDO+DFfH0vQSTJjm2ugb/zHMbw+APpFEti1XAXsdZiBhwh2Uvbs00FciVnKhFG39mYQePKoafDW8gfmO1eibUibmFjiG/l5nfT+OpwIC7FFqgT4e/jZtpxZNXTp4YHtnvJsj5im05QjIwUYiqQSSDI3A7QYZrz6t4PZ/Tq+iZWhhvfqVnjtZhh4O/hCCwUN73gQrYStAL98MUcofeWUnY+e43IXavGn7RnOVMR6BiAK8nFugj4e/zSzM2ldehy5IgNvwcZKVm4MPeDdo000yxY1BqrtGcW/Z9pyCl/87dOWUjovDuDcEeh0kLQD5jIQ44GASCiJmgX7uy1Qzy/ssLVs8QiPAHqUW6OPhb7MKF00r9JahbZ7By5KpNrMQap5C2b9Bg76ZYK16yjAmDkMSl7xPaK1eB0AjmHNjEp2fMdswhr2utwX6uWRCsHWZGU0/HiCKArycW6CPh7/NCPTUrKtbBCah9E5Taa2hM1hZ0d+mNxMheGv3y6RZMMUJ2nmd1Oiv14uraKbRg0GadnwD7gR5TvBWgF5fr9rpx+MH5Y73rOlm7srdeG1vr0/Y5hPerHv0FWCPUjLfulfGw+NmE2QCPUFab6jNAGQ6FILZJ5aLpXx3O/TKWL3nqglIRgCmmYa+80PFG4J9Zek/zz+CNFSKlJt0pyJxckygMw4I/K6kKE8s0M9NWYu2sz0/6HY+6Bdqgn8U4OWcDWKBPh4eN5twG6A3rpBaI+eEauCBQ6AfLH/C2OhVqrJBOOtAoF/AGDfex4LwxALy3IybWrsB+lQt040F+pr9r9lkw5an6fp8PAUSYI9SNngY6Ddv3owNGzZg48aN6OnpwfLly9HW1qaFV94VIYmey3VL42mzePiYRC7Xrhc2UVvXGndGoatDoeTfVlnhyhg4NMXQ64aTtdyJaq+/XQN9daLVvN9IuSgzfN+abppJRmxZGpHpmN6NpxEElKOUhbRAHw+PY2rw+DTChAI9agjUsmAqnU0hlTFeNWX3c+hs40bbxpzDPwDuOpXIKIy423E4PW4Cc09cdbNAP0dlTeZrLJ1q/41HMKIAL+cW6OPhb1xAGGs+gQ99KsPQBwq5YNEUAT3Lla8pBa9wl/alpzslF0rRjp8m0Ps7sTBrgT7W9rAgOFUQbIX34gEiAfYotUAfD3+bEhAI9FwARc1e79VqzDPpZA5pldEbfRedm9A9rxrFMpE1x0PuLVhoNfpWABhbx+YYgOMBoijAy7kF+nj427RAH2j1ZmKWXjgZE7NGpbV9fri0XUex5IYkei9YWTnr3ag3EremmzksH80BcHagMe0Qj6AJsEepBfp4+Nu0QJ80q2Hp927CFqT1xtyMUZ/JcnXsNr1KVtwsqf3nuFjKub4aCydGQKD8kVd2MnYOy12M8tKU/Wp66hePQEQBXs4t0MfD36YUSK3Nc4FTGimVQUrRVz5Y/MSY8mkThnh+pwluxqiUjEhJLX6odAu4kbiObhmjYFugn8PyFqOcNGV/mt76xSMYAuxRaoE+Hv42p2AmkUgybAFBPqddLBmFUk+66uBkCiX3RrNVYJYbixgPHE7alty70EF7vfW6saaF6QU4y1/D33iAKArw4XNxr7zgggswFT965tWcQBcP72Zv3ajNR7YIDDqt9rxJGn/6cnGH1u7pP9+mV8zeia6M0lsOVsIcTLGzi2xEKXl6//33Y3R0FK7r6uT7PhzH0cdCDxw4gB07dkDen71t0eqyaOs/iezGwyB2lPGSBfp4eDxJQ87AYChb+3Fla2Cy0eEJeD2pTTRcIVsqbgdj1GdySptrBvwbdegD2vS1qWeKIE9+CEBHKe9Fgd7zPAv0DfC6+eRvrvaraalXPJmOB/IUDgL9/PnzYTX6eHjdTB2uAtQVoDcgT7s97e/zu8wG4NTm6T+/oFOhlL8BnRmCPP8ITBCzqdYpDPAig5JXI0Av+Upels492W2xNm28AaWD1aJkJj0gGgV62/Eab6fpEGwCvQZ7HaPGgLYBf7OlYHeHQrn4QR3FksC/oF1hX3GH1vb1HrENapgiF2HZk3rWA/RPPfVUTdON5Ct5jUflu43cn+xd+UYtOt679npz9pcZa5dawhPnNVYsLqCXcoWZJdcsHd90Np28YZRJE2mS+8IyLr1Mxma0XZ4bkDBKZTZjPGwO61AYKGzXgc10OAQGKZvA7FfPPcpD+DmRDwL9yMhIxUZfy3QTBXrmI/kJDeddz7F8f7z3x7sv1+v5hn1mZuR9tvJdHYqCx2GjPxTltN+YSuch0Gc02JtwxSaejUpkkKHphjtNuTt0jPquNoXDOhXKznZks8amT0+cRvkeBVQBzEaBvtFy2fenIk/2nemQm9iBntq7JClwOp3GggULsHbt2hd43SxbtuwF0Sv5XrTzSl6WNldH0Fp8IoWMSugFU9TSdSLQJxTmZRXKhc/o+PPcP7bovB/0q8/R3ZLafxMCPWWMMmxlrblkzbbH1NtjWoFeAN8C/dQbqJmFm6tfmVhGAj2TBnkd/yaFdEKhnbtJZbkS9rPan35k6Dp0dSpkU8aHPo76RZWCRjV6lskC/dyU2TjkbTbmMe1AT7NNJpPBEUccgfPPP1/HoV+/fr3W7NetW6fj0edyOQ0W7FzSSclM6cAyYNjO11ydT+8oRQ2eESlVxsS54TmjWCbTWlvPJBXakgrD7u04skthqPwu7WLZnlV6lWyjGj1lhIqEyIrID+XuO9/5DoaHh0HbPH3p6UdfKBR0Ens9/eh37txZkTt5Pyx/s7Fj2zI3V1+Z6faIHeijFZKOQ6+bCy+8EFu2bNEbj8jCKZpustmsBnp2Tj4vwM7jaH7h88nuh5+1x/ELvgZ6rmxNVYFea/ka/ANtXym9L+yIeyOO6FTYO/h/Ma/LaPT1hD+YrN1EXsKyIArDrl27KgumCPCyYIrHBH4umtq/fz9uvvlmLXeUPyZ+M5zfRGXgc9OZJvq2vRe/TM9VnqrpFFLmzU5HjX3hwoXaRr9p0yZQo+cuU5dddhkE6PksmRym0102m3+DIEXf+SDGvGw8Ulk4FfjV69g2KYUh/8M4cr7R6BnJUtvoYwJJkRvKmoA1tXxq9PS6IbD39/dXNHtZFUuwp0Z/2223VRQKkQnmKYqHXLO0QXmJqb1tO0yhHUR7Ho9ONsKN955cZ6Ow00U1egI9txJcsWIF2tvbdUfjO/xemEo+llYnuZuFFwluCJ5KgpTRK5nC1xijnj71XB07PHAdFnYT6K/V2wxmuaVgIp46CSjTRMgkQPDAAw9ojZ5mGoI9KbX6MH3mmWcqppvwIME8mc9M8zrc/2a6LPb78cjrTPDxkGj0BPrDDjsMb3nLW3DFFVdobZ5ATzPOUUcdNaZzSie1dAqj9kxoTNTcufo5SLrdgms8pnmmvU3Bc/8cRxyhUPKuR1tGadfLRlfFhmVEAF7Amp3p4YcfxtNPP40nn3xSAz7t9UNDQ9puz+PBwUE899xzuPXWW8do7wLyQsPfscezRC5noi808zdPP/10xJ1OO+00SHrZy16GV7ziFTjzzDO1qYabgtN8Ixr9a17zGpxxxhmV51mW8Dnzibt8Nr/42vy0M0xeZ73yTJx12uk4/YyX47QzXo7TTzsbp73yLJx+2itw+hnzMTxyNQYG/wTnvUrh3LOPxtlnvxSnnXZGw2179tlna3l55StfCcraS1/6Urz85S8Hz2+44QZ87nOf0+kzn/kM7rrrLp0+/elPg+lTn/oU/vZv/xbvfve79Tsis5RVkUPK4kRpumUp+u3p/p7NP76+0Uy8VNSwG0lXXnklmCbK461vfat+hiBPgN+6dasG+8svv1y/R80+/D6f5zNM4es8rud70XfseWNtPBH/tl5p2u6qrW/DVVdciSuu3Ah9bevbceWWP8Fb33oF3nbVOfizd6YxNHot/uSqF+MdV12ILZt7cOVbr6q0p7RrlE70bd6j7PAdKg9XXXUVKDuSLr74Yu0AwD9JOgIw1hIpzyXRE0zmjPge8yOV70bL02znUk5Lp0/G5wJvFYF3okRwnixN9D7vEdDZEWmTl2flmC6W4m4p9/isfFOuWTpxO80Uf9ZvZJv2YPN6kzZsvFy38caet2Fjz5X6eMvWc/G2dyyA523HlZvPwJaNF2PjxvXoWW8G/onKLnIwHg3LCif3Ra5I6dnF+0zyDeZDeZPneJ3XwpTHlMvwe/K+pc0ph7ZdJm4XJR1huig7m2hM4c7FhuE3pQNTk5IyyHG4o8q9qVLmFU5TzSf6XjjPWuWd7H40v+i5vD/edbkvNPpco+eS73jU5L8BWzetw+ZNPaYNN16Jzev/BFs2XqXPt259A6562ynI9/09rtz0RlyxicrDZmzeckWlzadaTsoPNS4CM2WKsiOKA+WNSgapJJ4z8Rk5JpX68S9S3p9qmZrhPamP0GiZ5LrQ8e5Hr0fP5f3potHvRc8n+270+ej5ZO9H70/2/nj3x7su+U/1fvS98c4VtaBG06WXXgqmSy65RCceS55yzM4kmhM7Ujjx2fD7PJe8JJ+pUuY7UZpqvvLeRHnXc0/yGY/Wk8dEz4yXb73XJ8q7eu9irLv0Alx26YW49NLLceklG3HZRVtx2cUbNZiu63kjNva8Els3nY2N69bi0oupeW/AWy66ZMK2Yf6TlZMATlmRP0OaZChrpBwAaM5529veppOYdnj+9re/vXKPpho+z+9ddNFFmjIPmn5Ia6XJyhXXfX47mleV7xPLdhzPRb8dPY/jGxPlEf1e9Hyid3kv+nz0fLL3m/1+tD7jnavFixejkbRkyRIwMY9FixbpxOOlS5fqtHz5cn1t1apVlQVT0inZEU8++WTtYin58D361tdbJvkmqbxT65rkL1SeFRp+J3w82X3JT6g8L1SuC5XrURr+Zvh4vPfkepTWm2/4GxMdR/OLni9ZsghLlh6F5UuOxNIlR2LxkmVYvGQlli5ag6WLVmPlypVYtGgB1qxaiBVLurF88RKsWL4GK1cdgxWrVur7fGa8RPfbiRJlhbIl7/OY1/jON77xDfzqV7/Cz372M/znf/6npjxm+vnPf45f/OIX6O3t1ZO2XLlN2eP7q1ev1nnwmPI7UZqobPXek7JHKd9nXZikP5GG2zzaHuHziZ4L3+Nx+D0ey/2JZIP3ou/FfR7X98fLZ7LyCh+ERp+X60LHuz/e9cnem+w+852obnJPcTFTI4mrWsV/WSivMTHftrY2dHZ26hAInAgjuItmT22Mwt3d3V15ls8zSR5hKuUMX7PHhtczx4c0stk0ctmkTplcFplsB3LpecilO5HNsj2z6Mim0N3RjrZMF3Jt85Br60C2LafXUHAdxVRTV1dXRX5F1kjp0vtv//Zv2q2SvvMSAoE+9DyWc66M/fjHP67Xb4TLQH52dHRoWRSZrEXD70zluFae4Wsi86Qz18YzLWP2+422vWrUeT+8oIPH0fzod0wh5cpY/h4T5Pk7SlsS7VPUlijYfI+dk37QPOZ7tfKL5j/Z+UR5THRvsnwnus98JdV6Tu4d7PflvVp5hq/JcwebfziPeo/lW1wBy7g1slI2o9LIKG4czjbl5uFm8VQqmdPX9MKqkL/9VP3TWU6+y44gK1lZJsrcfffdp4GeK2HDq2F53NfXpxdRceXs7bffrvOQMjDPcF5Sx1pU3pkuWuub4Wv1thOfk/fGe2ey++O912rXhU+kteo+3n25XusdXmv0/nj58nosC6ZqFVCuscNQ0+fKWNpSOdlFO5JMxvK3lJ2Sz/NZ0jg7jZRjPNrot8bLt97rk32/3nzGe26y/Ce7P16+1etss1R179cA7LkfbFqxIzDgWBKpRBodbe1m60CuqE0oJNOmvat5VQdIuTZZ+cL3+Q7/HuUaY93s3bu3AvLU5iXl83mt1f/3f/+3BnrKHhWNoFPoPATsJb/poFLP8Wj4m+M9M53Xw9+vdTyd32betb4ZvjbZ98PP1jqe7P1mv1+rTjWvTTQK1HNvIkbIB6ltcWUs/ZjDHjWc+KJGz/vMRzrZeHlKeaL35XqU8jkpQ/QduR59R87leTmPUrkfpZKv0MnuR/OV88nei96Xc/muUMlvqlTyqU2pKRDI08F2gsEG4QmlQxQzTDHfMwOB0bx1pMt2A/S8Xjvf6upLqdd4lPXiPaGSH0FagpqFtXkx2RDoCfoE+ltuuWUdd9Q9AAAB10lEQVRMOYRXpuwvHHzCZZFnw9cO5ljKOxk9mDz5rOQn78m5ULkuVK4LletSv/GoPD9ddLzvyvXJvivPRanUb7L35Tmh0eflutDx7o93fbL3Jrsfrpc8G74mxw2bbiQj+QgrJMek7HB8RvaMJdBzMpZmG3recMJJNHo+J+/Le+G87PHEoHPo+UNNPqOTNt0EAc4I5qkg6Xg3Wg4y2rSTzATmHWr0OpRx43USGRSZ4Tl5QdMNNXqCO0FdTDgSrpjXaKPftm2bllO+L/JHKvlMJ1+l7AdDw+U5FGUMf88eNy6vM8HDWE03tSrADsMOVGuHKQI9J2Npo+e7FFrpaJIXzyXJtTCVe5ZW+XRoecE2E/vi/9/ete1QCIOw//9rU5PGhjjCZJs3nrjIKnSznqejvuSdfvYvSx0PzIh+7ZlAjF/0kW/G4v/oUY8+aK3PWO+jtTNmiGBqP1rPvObKd86k6MxHecoPz0N1ZkFaROhRR6GHTyxLOvO09nrF+f28wiH3Q20LR2vgt+p68oqJdYjfLPRRXuzcylkUQ9eUf8/zs4D3/GB62KyPAWYJ/QJyhojQH/q0++6JTE9tlDvFxBrEo4Wevdh7MZ+1iqu+hxut8zDqWl4Dn87hBnDS/FB7M3W2AAAAAElFTkSuQmCC;" vertex="1" parent="1">
          <mxGeometry x="335.71999999999997" y="660" width="261.44" height="157" as="geometry" />
        </mxCell>
      </root>
    </mxGraphModel>
  </diagram>
</mxfile>
